<svg id="Capa_1" enable-background="new 0 0 512 512" height="512" viewBox="0 0 512 512" width="512" xmlns="http://www.w3.org/2000/svg"><g fill="#2a3653"><path d="m439.6 36.3c0-11.8-9.6-21.3-21.3-21.3-11.8 0-21.3 9.6-21.3 21.3v27.7h-27.7c-11.8 0-21.3 9.6-21.3 21.3 0 11.8 9.6 21.3 21.3 21.3h27.7v27.7c0 11.8 9.6 21.3 21.3 21.3 11.8 0 21.3-9.6 21.3-21.3v-27.7h27.7c11.8 0 21.3-9.6 21.3-21.3 0-11.8-9.6-21.3-21.3-21.3h-27.7z"/><path d="m283.1 106.7c48.5.7 88.3 41 88.3 89.6 0 49.1-40.5 89.6-89.6 89.6-14.6 0-28.5-3.6-40.8-10-18.7-9.7-33.7-25.9-41.9-45.5-.6-1.4-1.2-2.9-1.7-4.3-3.4-9.4-5.2-19.4-5.2-29.9 0-51.2 40.5-89.6 89.6-89.6.4.1.8.1 1.3.1z"/><path d="m162.3 218.5c-31.4-13.9-53.3-45.4-53.3-81.9 0-49.5 40.1-89.6 89.6-89.6 26.1 0 49.6 11.2 66 29-58.3 8.6-104.4 60-104.4 120.3 0 7.5.7 15 2.1 22.2z"/><path d="m87.6 411.7c24.2-54.2 70.1-96.1 126.5-114.9-22.1-15.1-39.2-37.1-47.8-62.7-76.1 15.4-133.4 78.7-142.7 156.3-2.1 12.8 6.4 21.3 17.1 21.3z"/><path d="m213.6 331.1c-38.7 15.7-70.7 44.3-90.6 80.6-10.6 19.4-17.7 41-20.4 64-2.1 12.8 6.4 21.3 17.1 21.3h324.3c10.7 0 19.2-10.7 17.1-21.3-10.7-89.6-87.5-160-179.2-160-14.9 0-29.9 2.1-42.7 6.4-2 .5-3.7 1.2-5.2 2.1-7.1 2-13.8 4.2-20.4 6.9z"/></g></svg>