<?xml version="1.0" encoding="UTF-8"?>
<svg version="1.1" viewBox="0 0 1200 1200" xmlns="http://www.w3.org/2000/svg">
 <path d="m1133.2 416.64c-23.078-28.828-44.492-55.16-44.492-55.16l-16.414-7.5195-67.426-4.1992-15.465-3.9883-8.5859-13.348s-9.1719-27.148-14.719-40.348c-44.922-107.75-128.75-159.96-245.31-153.29-84.961 4.8516-162.32 34.641-237.44 71.828-9.4258 4.668-22.574 10.32-31.492 15.309 0 0 20.559 23.84 22.309 26.238l-228.04 89.172-124.41 85.469-47.785 103.76-11.16 93.785 3.0664 48.492 29.465-3.0938 11.172-25.387-2.1719-70.492-6.707-43.707 19.84-53.332 4.1992 5.5195-0.49219 44.375 37.613 70.773 44.508 75.68-66.16 67.773-58.453 182.9h59.16l35.027-119.16s39.199-37.68 39.641-37.934c-0.35938 1.8125 1.1055 42.879 1.1055 42.879l80.441 113.8 64.973 0.39844-84.707-121 120.55-172.76 166.68 0.60156 77.078 52.508 4.375 149.15 77 61.707 3.4141 30.387h39.148l-0.65234-79.574 45.602 49.172 4.4258 30.387 41.762 0.1875s-0.12109-15.453 0.027344-23.602c0.90625-62.32 0.44141-124.62 0.44141-186.92 0-5.3477 1.0391-14.055 1.0391-14.055l8.9219-17.332s13.16-9.0391 24.574-13.266v121.39c11.254-7.2383 76.027-57.414 76.027-57.414l36.812-19.133 46.668-10.734 27.254-1.7734 19.762-14.828 11.852-24.961 44-121.19 10.625-33.559-2.9609-45.359c-0.023438 0.046875-13.332-30.02-25.516-45.219m-109.09 106.49-18.789 0.29297-20.84-11.762-12.945-34.375 10.16-31.48 26.215-50.309 5.6797 1.5469 0.48047 66.227 21.32 13.895 1.6133 28.199z"/>
</svg>
