<svg xmlns="http://www.w3.org/2000/svg" version="1.0" preserveAspectRatio="xMidYMid meet" viewBox="33.14 49.3 779.36 533.71">

<g transform="translate(0.000000,636.000000) scale(0.100000,-0.100000)" fill="#000000" stroke="none">
<path d="M3090 5859 c-88 -17 -177 -105 -205 -203 -13 -46 -15 -144 -13 -722 l3 -669 27 -51 c39 -74 72 -109 130 -138 l52 -26 518 0 518 0 0 -305 0 -305 -1224 0 c-1190 0 -1224 -1 -1247 -19 l-24 -19 -5 -519 -5 -518 -540 -5 c-530 -5 -541 -5 -580 -27 -57 -30 -99 -78 -132 -148 l-28 -60 -3 -630 c-2 -428 1 -650 8 -694 19 -110 69 -184 154 -229 l51 -27 1230 0 c1123 0 1233 1 1266 17 57 25 116 84 146 146 l28 57 0 685 0 685 -26 56 c-31 65 -79 117 -135 145 -37 18 -68 19 -541 22 l-503 3 0 319 0 320 2245 0 2245 0 0 -324 0 -325 -512 -3 -513 -3 -52 -24 c-61 -27 -116 -84 -147 -150 -21 -46 -21 -52 -21 -736 0 -680 0 -691 21 -736 30 -65 81 -119 139 -145 l50 -24 1226 0 c1360 0 1260 -5 1340 67 22 20 53 60 67 87 l27 51 0 700 0 700 -27 52 c-33 62 -77 105 -138 136 -45 22 -50 22 -557 25 l-513 3 0 509 c0 352 -3 517 -11 533 -6 14 -22 30 -36 36 -17 8 -354 11 -1178 11 l-1155 0 0 305 0 305 513 0 512 0 50 24 c64 30 107 76 142 151 l28 60 0 670 0 670 -23 57 c-28 68 -87 132 -150 161 l-47 22 -1200 2 c-669 0 -1220 -3 -1245 -8z"/>
</g>
</svg>