<svg xmlns="http://www.w3.org/2000/svg" xmlns:xlink="http://www.w3.org/1999/xlink" id="svg" version="1.1" viewBox="30.4 6.81 340.76 345.88"><g id="svgg"><path id="path0" d="M199.426 8.688 C 199.289 9.603,199.029 10.351,198.849 10.351 C 198.669 10.351,198.521 10.933,198.521 11.645 C 198.521 12.357,198.376 12.939,198.199 12.939 C 198.021 12.939,197.770 13.604,197.640 14.418 C 197.510 15.231,197.261 15.896,197.086 15.896 C 196.911 15.896,196.658 16.728,196.523 17.745 C 196.388 18.762,196.117 19.593,195.921 19.593 C 195.724 19.593,195.564 20.092,195.564 20.702 C 195.564 21.312,195.413 21.811,195.229 21.811 C 195.045 21.811,194.779 22.643,194.640 23.660 C 194.500 24.677,194.235 25.508,194.050 25.508 C 193.866 25.508,193.715 25.924,193.715 26.433 C 193.715 26.941,193.559 27.357,193.368 27.357 C 193.177 27.357,192.909 28.105,192.772 29.020 C 192.635 29.935,192.390 30.684,192.229 30.684 C 192.068 30.684,191.822 31.516,191.682 32.532 C 191.542 33.549,191.277 34.381,191.093 34.381 C 190.909 34.381,190.758 34.797,190.758 35.305 C 190.758 35.813,190.610 36.229,190.430 36.229 C 190.250 36.229,189.990 36.978,189.853 37.893 C 189.716 38.808,189.463 39.556,189.291 39.556 C 189.119 39.556,188.864 40.388,188.725 41.405 C 188.585 42.421,188.320 43.253,188.135 43.253 C 187.951 43.253,187.800 43.835,187.800 44.547 C 187.800 45.259,187.649 45.841,187.463 45.841 C 187.278 45.841,187.014 46.506,186.876 47.320 C 186.739 48.133,186.475 48.799,186.289 48.799 C 186.104 48.799,185.952 49.201,185.952 49.692 C 185.952 50.183,185.783 50.642,185.576 50.711 C 185.368 50.780,185.096 51.709,184.969 52.775 C 184.843 53.841,184.612 54.713,184.456 54.713 C 184.300 54.713,184.058 55.545,183.919 56.562 C 183.779 57.579,183.514 58.410,183.329 58.410 C 183.145 58.410,182.994 58.743,182.994 59.150 C 182.994 59.556,182.847 59.889,182.667 59.889 C 182.487 59.889,182.221 60.679,182.076 61.645 C 181.931 62.611,181.645 63.505,181.439 63.633 C 181.234 63.760,180.979 64.633,180.873 65.574 C 180.767 66.514,180.535 67.283,180.359 67.283 C 180.182 67.283,180.037 67.699,180.037 68.207 C 180.037 68.715,179.881 69.131,179.690 69.131 C 179.499 69.131,179.231 69.880,179.093 70.795 C 178.956 71.710,178.696 72.458,178.516 72.458 C 178.336 72.458,178.189 72.874,178.189 73.383 C 178.189 73.891,178.038 74.307,177.854 74.307 C 177.669 74.307,177.404 75.139,177.264 76.155 C 177.125 77.172,176.859 78.004,176.675 78.004 C 176.491 78.004,176.340 78.425,176.340 78.941 C 176.340 79.788,176.094 79.634,173.752 77.315 C 172.329 75.906,171.165 74.646,171.165 74.515 C 171.165 74.385,170.499 73.606,169.686 72.784 C 168.872 71.963,168.207 71.130,168.207 70.934 C 168.207 70.737,167.126 69.516,165.804 68.221 C 164.482 66.925,163.401 65.613,163.401 65.305 C 163.401 64.997,163.068 64.639,162.662 64.510 C 162.255 64.381,161.922 64.133,161.922 63.959 C 161.922 63.533,159.736 61.368,159.306 61.368 C 159.118 61.368,158.965 61.095,158.965 60.761 C 158.965 60.427,158.216 59.427,157.301 58.538 C 156.386 57.648,155.638 56.756,155.638 56.554 C 155.638 56.352,154.640 55.205,153.420 54.003 C 152.200 52.802,151.201 51.676,151.201 51.500 C 151.201 51.325,150.910 50.906,150.555 50.570 C 150.199 50.234,149.708 49.740,149.463 49.471 C 149.219 49.203,148.778 48.785,148.484 48.542 C 148.190 48.299,147.871 47.883,147.775 47.618 C 147.643 47.254,147.432 47.234,146.919 47.536 C 146.170 47.978,146.053 63.992,146.797 64.264 C 146.987 64.333,147.135 67.858,147.135 72.304 C 147.135 76.659,147.278 80.222,147.453 80.222 C 147.627 80.222,147.891 87.417,148.038 96.211 C 148.185 105.005,148.458 112.358,148.644 112.551 C 148.832 112.745,148.983 117.070,148.983 122.224 C 148.983 127.669,149.127 131.598,149.329 131.670 C 149.533 131.742,149.783 139.870,149.940 151.479 C 150.086 162.306,150.347 171.165,150.519 171.165 C 150.691 171.165,150.832 174.076,150.832 177.634 C 150.832 184.417,150.673 185.001,149.221 183.549 C 148.916 183.244,148.495 182.994,148.285 182.994 C 148.075 182.994,147.244 182.329,146.439 181.516 C 145.634 180.702,144.866 180.037,144.733 180.037 C 144.599 180.037,143.991 179.538,143.381 178.928 C 142.771 178.318,142.119 177.819,141.931 177.819 C 141.743 177.819,140.924 177.153,140.111 176.340 C 139.298 175.527,138.394 174.861,138.103 174.861 C 137.811 174.861,137.470 174.537,137.344 174.141 C 137.218 173.745,136.791 173.318,136.395 173.192 C 135.999 173.066,135.675 172.808,135.675 172.618 C 135.675 172.429,135.514 172.274,135.318 172.274 C 135.121 172.274,134.450 171.774,133.826 171.165 C 133.202 170.555,132.518 170.055,132.306 170.055 C 132.094 170.055,131.299 169.390,130.541 168.577 C 129.783 167.763,128.892 167.098,128.562 167.098 C 128.231 167.098,127.858 166.774,127.732 166.378 C 127.607 165.981,127.149 165.544,126.714 165.406 C 126.280 165.269,125.415 164.618,124.792 163.960 C 124.170 163.303,123.294 162.650,122.847 162.510 C 122.400 162.369,121.934 161.939,121.811 161.553 C 121.689 161.167,121.223 160.736,120.776 160.596 C 120.329 160.455,119.434 159.781,118.786 159.098 C 118.139 158.415,117.434 157.856,117.218 157.856 C 117.003 157.856,116.350 157.357,115.767 156.747 C 115.184 156.137,114.517 155.638,114.285 155.638 C 114.053 155.638,113.863 155.483,113.863 155.293 C 113.863 155.103,113.539 154.845,113.143 154.719 C 112.747 154.594,112.322 154.175,112.200 153.789 C 112.077 153.403,111.611 152.973,111.164 152.833 C 110.717 152.692,109.985 152.185,109.537 151.705 C 109.089 151.225,108.541 150.832,108.318 150.832 C 107.854 150.832,106.100 149.035,106.100 148.560 C 106.100 148.386,105.818 148.244,105.474 148.244 C 105.130 148.244,104.236 147.587,103.487 146.784 C 102.739 145.981,101.669 145.209,101.111 145.069 L 100.095 144.814 100.193 162.333 C 100.246 171.969,100.266 180.060,100.237 180.314 C 100.175 180.859,98.706 180.948,98.706 180.407 C 98.706 180.203,98.457 180.037,98.152 180.037 C 97.847 180.037,97.597 179.892,97.597 179.715 C 97.597 179.537,96.932 179.286,96.118 179.156 C 95.305 179.026,94.640 178.757,94.640 178.558 C 94.640 178.360,93.974 178.091,93.161 177.961 C 92.348 177.831,91.682 177.579,91.682 177.402 C 91.682 177.225,91.433 177.079,91.128 177.079 C 90.823 177.079,90.573 176.929,90.573 176.744 C 90.573 176.560,89.741 176.295,88.725 176.155 C 87.708 176.015,86.876 175.752,86.876 175.570 C 86.876 175.389,86.211 175.133,85.397 175.003 C 84.584 174.873,83.919 174.622,83.919 174.444 C 83.919 174.267,83.669 174.122,83.364 174.122 C 83.059 174.122,82.810 173.970,82.810 173.785 C 82.810 173.599,82.144 173.335,81.331 173.198 C 80.518 173.060,79.852 172.796,79.852 172.611 C 79.852 172.425,79.519 172.274,79.113 172.274 C 78.706 172.274,78.373 172.122,78.373 171.936 C 78.373 171.751,77.708 171.487,76.895 171.349 C 76.081 171.212,75.416 170.969,75.416 170.810 C 75.416 170.650,74.750 170.413,73.937 170.283 C 73.124 170.153,72.458 169.882,72.458 169.681 C 72.458 169.480,72.043 169.316,71.534 169.316 C 71.026 169.316,70.610 169.152,70.610 168.951 C 70.610 168.750,69.945 168.479,69.131 168.349 C 68.318 168.219,67.652 167.969,67.652 167.794 C 67.652 167.620,66.987 167.370,66.174 167.240 C 65.360 167.110,64.695 166.858,64.695 166.681 C 64.695 166.504,64.445 166.359,64.140 166.359 C 63.835 166.359,63.586 166.213,63.586 166.036 C 63.586 165.859,62.921 165.607,62.107 165.477 C 61.294 165.347,60.628 165.076,60.628 164.875 C 60.628 164.675,60.213 164.510,59.704 164.510 C 59.196 164.510,58.780 164.346,58.780 164.145 C 58.780 163.944,58.115 163.673,57.301 163.543 C 56.488 163.413,55.823 163.163,55.823 162.989 C 55.823 162.814,55.157 162.564,54.344 162.434 C 53.530 162.304,52.865 162.052,52.865 161.875 C 52.865 161.698,52.616 161.553,52.311 161.553 C 52.006 161.553,51.756 161.401,51.756 161.215 C 51.756 161.030,51.091 160.766,50.277 160.628 C 49.464 160.491,48.799 160.248,48.799 160.089 C 48.799 159.929,48.133 159.692,47.320 159.562 C 46.506 159.432,45.841 159.161,45.841 158.961 C 45.841 158.760,45.425 158.595,44.917 158.595 C 44.409 158.595,43.993 158.443,43.993 158.258 C 43.993 158.073,43.327 157.808,42.514 157.671 C 41.701 157.534,41.035 157.269,41.035 157.084 C 41.035 156.899,40.702 156.747,40.296 156.747 C 39.889 156.747,39.556 156.595,39.556 156.410 C 39.556 156.224,38.891 155.960,38.078 155.823 C 37.264 155.685,36.599 155.423,36.599 155.240 C 36.599 155.057,35.933 154.801,35.120 154.671 C 34.307 154.541,33.641 154.289,33.641 154.112 C 33.641 153.934,33.226 153.789,32.717 153.789 C 32.209 153.789,31.793 153.623,31.793 153.420 C 31.793 153.216,31.439 153.050,31.007 153.050 C 30.201 153.050,30.203 155.098,31.009 155.619 C 31.182 155.731,31.438 156.188,31.577 156.635 C 31.717 157.083,32.138 157.546,32.512 157.665 C 32.926 157.796,33.289 158.384,33.435 159.162 C 33.567 159.867,33.826 160.444,34.010 160.444 C 34.195 160.444,34.636 161.067,34.990 161.830 C 35.345 162.592,35.852 163.349,36.117 163.512 C 36.382 163.674,36.599 164.121,36.599 164.504 C 36.599 164.886,36.914 165.300,37.299 165.422 C 37.728 165.558,38.091 166.128,38.234 166.890 C 38.362 167.575,38.712 168.230,39.012 168.345 C 39.311 168.459,39.556 168.880,39.556 169.280 C 39.556 169.679,39.873 170.106,40.259 170.229 C 40.645 170.351,41.065 170.862,41.190 171.363 C 41.316 171.864,41.569 172.274,41.752 172.274 C 41.935 172.274,42.195 172.772,42.329 173.382 C 42.463 173.992,42.868 174.699,43.229 174.953 C 43.591 175.208,44.005 175.790,44.149 176.248 C 44.294 176.705,44.567 177.079,44.757 177.079 C 44.947 177.079,45.102 177.329,45.102 177.634 C 45.102 177.939,45.257 178.189,45.446 178.189 C 45.636 178.189,45.908 178.555,46.050 179.003 C 46.192 179.451,46.536 180.045,46.814 180.323 C 47.092 180.602,47.320 181.067,47.320 181.357 C 47.320 181.648,47.486 181.885,47.689 181.885 C 47.893 181.885,48.059 182.135,48.059 182.440 C 48.059 182.745,48.214 182.994,48.404 182.994 C 48.594 182.994,48.865 183.361,49.007 183.809 C 49.149 184.257,49.493 184.851,49.772 185.129 C 50.050 185.407,50.277 185.873,50.277 186.163 C 50.277 186.454,50.444 186.691,50.647 186.691 C 50.850 186.691,51.017 186.941,51.017 187.246 C 51.017 187.551,51.172 187.800,51.361 187.800 C 51.551 187.800,51.824 188.175,51.969 188.632 C 52.113 189.090,52.510 189.713,52.851 190.018 C 53.192 190.323,53.579 190.864,53.711 191.220 C 53.843 191.576,54.122 191.867,54.332 191.867 C 54.542 191.867,54.713 192.205,54.713 192.618 C 54.713 193.031,54.963 193.465,55.268 193.582 C 55.573 193.699,55.823 194.026,55.823 194.309 C 55.823 194.593,55.989 194.824,56.192 194.824 C 56.396 194.824,56.562 195.162,56.562 195.575 C 56.562 195.988,56.811 196.422,57.116 196.539 C 57.421 196.656,57.671 197.072,57.671 197.463 C 57.671 197.855,57.921 198.271,58.226 198.388 C 58.530 198.505,58.780 198.832,58.780 199.115 C 58.780 199.399,58.943 199.630,59.143 199.630 C 59.342 199.630,59.610 200.046,59.737 200.555 C 59.865 201.063,60.118 201.479,60.299 201.479 C 60.480 201.479,60.628 201.728,60.628 202.033 C 60.628 202.338,60.784 202.588,60.973 202.588 C 61.163 202.588,61.434 202.954,61.577 203.402 C 61.719 203.850,62.063 204.444,62.341 204.723 C 62.619 205.001,62.847 205.466,62.847 205.757 C 62.847 206.047,63.013 206.285,63.216 206.285 C 63.420 206.285,63.586 206.534,63.586 206.839 C 63.586 207.144,63.749 207.394,63.949 207.394 C 64.148 207.394,64.416 207.810,64.543 208.318 C 64.671 208.826,64.912 209.242,65.080 209.242 C 65.247 209.242,65.503 209.616,65.647 210.074 C 65.792 210.531,66.195 211.155,66.543 211.460 C 66.892 211.765,67.308 212.431,67.468 212.939 C 67.627 213.447,68.056 214.123,68.420 214.440 C 70.071 215.878,69.751 217.006,67.693 217.006 C 66.654 217.006,65.804 217.156,65.804 217.341 C 65.804 217.525,64.224 217.794,62.292 217.939 C 60.360 218.084,58.780 218.349,58.780 218.528 C 58.780 218.707,57.948 218.854,56.932 218.854 C 55.915 218.854,55.083 219.005,55.083 219.190 C 55.083 219.376,53.669 219.645,51.941 219.789 C 50.213 219.933,48.799 220.197,48.799 220.376 C 48.799 220.556,47.967 220.702,46.950 220.702 C 45.933 220.702,45.102 220.849,45.102 221.028 C 45.102 221.207,43.521 221.472,41.590 221.617 C 39.658 221.762,38.078 222.031,38.078 222.216 C 38.078 222.400,37.343 222.551,36.444 222.551 C 33.729 222.551,32.385 223.955,34.473 224.611 C 34.931 224.754,35.815 225.410,36.438 226.068 C 37.060 226.725,37.925 227.376,38.359 227.514 C 38.794 227.652,39.252 228.088,39.378 228.485 C 39.503 228.881,39.894 229.205,40.246 229.205 C 40.597 229.205,41.293 229.697,41.792 230.299 C 42.291 230.900,42.915 231.399,43.178 231.408 C 43.442 231.416,44.025 231.816,44.472 232.296 C 44.920 232.776,45.652 233.284,46.099 233.424 C 46.546 233.564,47.015 234.003,47.141 234.400 C 47.267 234.796,47.668 235.120,48.032 235.120 C 48.397 235.120,49.007 235.536,49.389 236.044 C 49.771 236.553,50.280 236.969,50.521 236.969 C 50.761 236.969,51.597 237.601,52.377 238.374 C 53.158 239.147,54.086 239.890,54.440 240.026 C 54.794 240.161,55.083 240.433,55.083 240.629 C 55.083 240.825,55.447 241.101,55.892 241.242 C 56.336 241.383,57.229 242.060,57.876 242.746 C 58.523 243.431,59.169 243.993,59.312 243.993 C 59.455 243.993,59.804 244.201,60.088 244.455 C 61.338 245.576,61.727 245.824,62.559 246.033 C 63.046 246.155,63.749 246.661,64.121 247.157 C 64.494 247.653,65.025 248.059,65.301 248.059 C 65.578 248.059,65.804 248.214,65.804 248.404 C 65.804 248.594,66.128 248.852,66.525 248.977 C 66.921 249.103,67.348 249.530,67.474 249.926 C 67.711 250.673,69.501 250.983,69.501 250.277 C 69.501 250.074,69.750 249.908,70.055 249.908 C 70.360 249.908,70.610 249.760,70.610 249.579 C 70.610 249.398,71.192 249.141,71.904 249.008 C 72.616 248.874,73.198 248.624,73.198 248.452 C 73.198 248.280,73.614 248.035,74.122 247.907 C 74.630 247.780,75.046 247.512,75.046 247.313 C 75.046 247.113,75.296 246.950,75.601 246.950 C 75.906 246.950,76.155 246.797,76.155 246.610 C 76.155 246.423,76.654 246.160,77.264 246.026 C 77.874 245.892,78.373 245.632,78.373 245.449 C 78.373 245.266,78.789 245.011,79.298 244.884 C 79.806 244.756,80.222 244.504,80.222 244.322 C 80.222 244.141,80.471 243.993,80.776 243.993 C 81.081 243.993,81.331 243.847,81.331 243.669 C 81.331 243.491,81.852 243.241,82.490 243.114 C 83.127 242.986,83.927 242.561,84.267 242.168 C 84.608 241.776,85.334 241.342,85.881 241.205 C 86.429 241.067,86.876 240.820,86.876 240.655 C 86.876 240.490,87.375 240.245,87.985 240.111 C 88.595 239.977,89.094 239.714,89.094 239.527 C 89.094 239.340,89.409 239.187,89.794 239.187 C 90.179 239.187,90.590 238.937,90.707 238.632 C 90.824 238.327,91.257 238.078,91.670 238.078 C 92.084 238.078,92.421 237.911,92.421 237.708 C 92.421 237.505,92.676 237.338,92.988 237.338 C 93.299 237.338,93.649 237.089,93.766 236.784 C 93.884 236.479,94.294 236.229,94.679 236.229 C 95.064 236.229,95.379 236.076,95.379 235.889 C 95.379 235.702,95.878 235.439,96.488 235.305 C 97.098 235.171,97.597 234.908,97.597 234.721 C 97.597 234.534,97.847 234.381,98.152 234.381 C 98.457 234.381,98.706 234.232,98.706 234.051 C 98.706 233.870,99.122 233.617,99.630 233.490 C 100.139 233.362,100.555 233.102,100.555 232.912 C 100.555 232.722,101.131 232.458,101.836 232.325 C 102.619 232.179,103.202 231.818,103.335 231.397 C 103.468 230.978,104.051 230.616,104.827 230.471 C 105.527 230.339,106.100 230.102,106.100 229.943 C 106.100 229.785,106.547 229.543,107.095 229.405 C 107.642 229.268,108.359 228.845,108.688 228.466 C 109.017 228.086,109.734 227.664,110.281 227.526 C 110.828 227.389,111.275 227.128,111.275 226.947 C 111.275 226.766,111.525 226.617,111.830 226.617 C 112.135 226.617,112.384 226.454,112.384 226.255 C 112.384 226.055,112.800 225.788,113.309 225.660 C 113.817 225.533,114.233 225.287,114.233 225.115 C 114.233 224.943,114.815 224.693,115.527 224.560 C 116.238 224.426,116.821 224.169,116.821 223.988 C 116.821 223.808,117.070 223.660,117.375 223.660 C 117.680 223.660,117.930 223.512,117.930 223.330 C 117.930 223.149,118.346 222.896,118.854 222.769 C 119.362 222.641,119.778 222.387,119.778 222.203 C 119.778 222.020,120.277 221.761,120.887 221.627 C 121.497 221.493,121.996 221.230,121.996 221.043 C 121.996 220.856,122.246 220.702,122.551 220.702 C 122.856 220.702,123.105 220.539,123.105 220.340 C 123.105 220.140,123.521 219.873,124.030 219.745 C 124.538 219.618,124.954 219.365,124.954 219.184 C 124.954 219.002,125.287 218.854,125.693 218.854 C 126.100 218.854,126.433 218.688,126.433 218.484 C 126.433 218.281,126.687 218.115,126.999 218.115 C 127.310 218.115,127.654 217.881,127.764 217.596 C 127.873 217.311,128.533 216.971,129.231 216.840 C 129.928 216.709,130.499 216.444,130.499 216.249 C 130.499 216.055,130.749 215.896,131.054 215.896 C 131.359 215.896,131.608 215.748,131.608 215.567 C 131.608 215.386,132.024 215.133,132.532 215.005 C 133.041 214.878,133.457 214.623,133.457 214.440 C 133.457 214.257,133.956 213.997,134.566 213.863 C 135.176 213.729,135.675 213.466,135.675 213.279 C 135.675 213.092,135.990 212.939,136.374 212.939 C 136.759 212.939,137.170 212.689,137.287 212.384 C 137.404 212.079,137.755 211.830,138.066 211.830 C 138.377 211.830,138.632 211.664,138.632 211.460 C 138.632 211.257,138.965 211.091,139.372 211.091 C 139.778 211.091,140.111 210.937,140.111 210.750 C 140.111 210.563,140.610 210.300,141.220 210.166 C 141.830 210.032,142.329 209.788,142.329 209.623 C 142.329 209.457,142.745 209.218,143.253 209.090 C 143.762 208.963,144.177 208.695,144.177 208.496 C 144.177 208.296,144.518 208.133,144.934 208.133 C 145.351 208.133,146.077 207.717,146.548 207.209 C 147.019 206.701,147.527 206.285,147.676 206.285 C 148.069 206.285,150.614 205.074,150.832 204.783 C 150.933 204.647,151.433 204.406,151.941 204.248 C 152.449 204.090,153.124 203.663,153.441 203.299 C 153.759 202.935,154.466 202.525,155.013 202.388 C 155.560 202.250,156.007 201.990,156.007 201.808 C 156.007 201.627,156.345 201.479,156.758 201.479 C 157.171 201.479,157.605 201.229,157.722 200.924 C 157.839 200.619,158.167 200.370,158.450 200.370 C 158.733 200.370,158.965 200.222,158.965 200.041 C 158.965 199.860,159.547 199.603,160.259 199.470 C 160.970 199.336,161.553 199.086,161.553 198.914 C 161.553 198.742,161.969 198.497,162.477 198.369 C 162.985 198.242,163.401 197.974,163.401 197.775 C 163.401 197.575,163.651 197.412,163.956 197.412 C 164.261 197.412,164.510 197.264,164.510 197.083 C 164.510 196.901,164.926 196.649,165.434 196.521 C 165.943 196.393,166.359 196.126,166.359 195.926 C 166.359 195.727,166.757 195.564,167.243 195.564 C 167.730 195.564,168.224 195.314,168.341 195.009 C 168.458 194.704,168.808 194.455,169.120 194.455 C 169.431 194.455,169.686 194.309,169.686 194.131 C 169.686 193.953,170.207 193.703,170.844 193.576 C 171.482 193.449,172.282 193.023,172.622 192.630 C 172.963 192.238,173.689 191.804,174.236 191.667 C 174.783 191.529,175.231 191.287,175.231 191.128 C 175.231 190.968,175.647 190.734,176.155 190.606 C 176.664 190.478,177.079 190.211,177.079 190.011 C 177.079 189.812,177.329 189.649,177.634 189.649 C 177.939 189.649,178.189 189.490,178.189 189.296 C 178.189 189.102,178.771 188.834,179.482 188.700 C 180.194 188.567,180.776 188.310,180.776 188.129 C 180.776 187.948,181.008 187.800,181.291 187.800 C 181.575 187.800,181.902 187.551,182.019 187.246 C 182.136 186.941,182.570 186.691,182.983 186.691 C 183.396 186.691,183.734 186.538,183.734 186.351 C 183.734 186.164,184.233 185.901,184.843 185.767 C 185.453 185.633,185.952 185.370,185.952 185.183 C 185.952 184.996,186.201 184.843,186.506 184.843 C 186.811 184.843,187.061 184.680,187.061 184.480 C 187.061 184.281,187.477 184.013,187.985 183.886 C 188.494 183.758,188.909 183.519,188.909 183.353 C 188.909 183.188,189.408 182.944,190.018 182.810 C 190.628 182.676,191.350 182.248,191.622 181.859 C 191.895 181.470,192.643 181.046,193.286 180.918 C 193.929 180.789,194.455 180.538,194.455 180.360 C 194.455 180.183,194.704 180.037,195.009 180.037 C 195.314 180.037,195.564 179.889,195.564 179.707 C 195.564 179.526,195.980 179.273,196.488 179.146 C 196.996 179.018,197.412 178.764,197.412 178.581 C 197.412 178.397,197.911 178.138,198.521 178.004 C 199.131 177.870,199.630 177.607,199.630 177.420 C 199.630 177.233,199.880 177.079,200.185 177.079 C 200.490 177.079,200.739 176.913,200.739 176.710 C 200.739 176.506,201.077 176.340,201.490 176.340 C 201.903 176.340,202.335 176.095,202.450 175.796 C 202.565 175.496,203.225 175.145,203.917 175.015 C 204.609 174.885,205.176 174.631,205.176 174.451 C 205.176 174.270,205.425 174.122,205.730 174.122 C 206.035 174.122,206.285 173.974,206.285 173.792 C 206.285 173.611,206.701 173.358,207.209 173.231 C 207.717 173.103,208.133 172.836,208.133 172.636 C 208.133 172.437,208.383 172.274,208.688 172.274 C 208.993 172.274,209.242 172.125,209.242 171.944 C 209.242 171.763,209.658 171.510,210.166 171.382 C 210.675 171.255,211.091 171.000,211.091 170.817 C 211.091 170.634,211.590 170.374,212.200 170.240 C 212.810 170.106,213.309 169.844,213.309 169.656 C 213.309 169.469,213.641 169.316,214.048 169.316 C 214.455 169.316,214.787 169.163,214.787 168.976 C 214.787 168.789,215.287 168.526,215.896 168.392 C 216.506 168.258,217.006 167.998,217.006 167.815 C 217.006 167.632,217.421 167.377,217.930 167.250 C 218.438 167.122,218.854 166.869,218.854 166.688 C 218.854 166.507,219.104 166.359,219.409 166.359 C 219.713 166.359,219.963 166.210,219.963 166.029 C 219.963 165.848,220.379 165.595,220.887 165.467 C 221.396 165.340,221.811 165.072,221.811 164.873 C 221.811 164.673,222.061 164.510,222.366 164.510 C 222.671 164.510,222.921 164.351,222.921 164.157 C 222.921 163.963,223.503 163.695,224.214 163.562 C 224.926 163.428,225.508 163.171,225.508 162.990 C 225.508 162.810,225.763 162.662,226.074 162.662 C 226.386 162.662,226.736 162.412,226.853 162.107 C 226.970 161.802,227.381 161.553,227.766 161.553 C 228.151 161.553,228.466 161.404,228.466 161.223 C 228.466 161.042,228.882 160.789,229.390 160.661 C 229.898 160.534,230.314 160.280,230.314 160.096 C 230.314 159.913,230.813 159.653,231.423 159.519 C 232.033 159.385,232.532 159.123,232.532 158.936 C 232.532 158.748,232.782 158.595,233.087 158.595 C 233.392 158.595,233.641 158.436,233.641 158.242 C 233.641 158.048,234.218 157.781,234.923 157.649 C 235.683 157.506,236.289 157.140,236.414 156.747 C 236.539 156.354,237.145 155.987,237.905 155.845 C 238.610 155.712,239.187 155.463,239.187 155.291 C 239.187 155.119,239.603 154.874,240.111 154.747 C 240.619 154.619,241.035 154.351,241.035 154.152 C 241.035 153.952,241.285 153.789,241.590 153.789 C 241.895 153.789,242.144 153.636,242.144 153.449 C 242.144 153.262,242.643 152.999,243.253 152.865 C 243.863 152.731,244.362 152.487,244.362 152.322 C 244.362 152.158,244.935 151.916,245.635 151.784 C 246.411 151.639,246.994 151.277,247.127 150.858 C 247.259 150.440,247.840 150.077,248.605 149.934 C 249.401 149.784,249.951 149.429,250.096 148.971 C 250.223 148.571,250.622 148.244,250.983 148.244 C 251.723 148.244,252.126 141.258,252.126 128.407 C 252.126 124.380,252.263 121.996,252.495 121.996 C 252.731 121.996,252.865 118.977,252.865 113.678 C 252.865 109.104,253.005 105.360,253.175 105.360 C 253.346 105.360,253.591 99.925,253.720 93.281 C 253.849 86.637,254.102 81.106,254.282 80.989 C 254.885 80.598,255.083 47.320,254.483 47.320 C 253.754 47.320,251.756 49.313,251.756 50.040 C 251.756 50.374,251.602 50.647,251.415 50.647 C 250.957 50.647,248.059 53.671,248.059 54.148 C 248.059 54.261,247.227 55.181,246.211 56.192 C 245.194 57.204,244.362 58.186,244.362 58.376 C 244.362 58.566,243.616 59.441,242.705 60.322 C 241.793 61.202,241.045 62.054,241.041 62.214 C 241.038 62.374,240.370 63.178,239.556 63.999 C 238.743 64.821,238.078 65.635,238.078 65.808 C 238.078 65.982,237.753 66.227,237.357 66.353 C 236.961 66.478,236.526 66.929,236.392 67.353 C 236.257 67.777,235.334 68.913,234.340 69.876 C 233.346 70.839,232.532 71.738,232.532 71.873 C 232.532 72.368,229.667 75.416,229.202 75.416 C 229.028 75.416,228.775 75.765,228.639 76.192 C 227.831 78.739,224.769 80.185,224.769 78.019 C 224.769 77.604,224.621 77.264,224.441 77.264 C 224.261 77.264,224.001 76.516,223.864 75.601 C 223.727 74.686,223.467 73.937,223.286 73.937 C 223.105 73.937,222.844 72.939,222.706 71.719 C 222.568 70.499,222.310 69.501,222.133 69.501 C 221.956 69.501,221.811 69.085,221.811 68.577 C 221.811 68.068,221.655 67.652,221.464 67.652 C 221.274 67.652,221.005 66.904,220.868 65.989 C 220.731 65.074,220.471 64.325,220.291 64.325 C 220.111 64.325,219.963 64.006,219.963 63.617 C 219.963 63.227,219.794 62.852,219.587 62.783 C 219.380 62.714,219.107 61.785,218.981 60.719 C 218.854 59.652,218.623 58.780,218.467 58.780 C 218.312 58.780,218.070 57.948,217.930 56.932 C 217.790 55.915,217.525 55.083,217.341 55.083 C 217.156 55.083,217.006 54.750,217.006 54.344 C 217.006 53.937,216.861 53.604,216.684 53.604 C 216.507 53.604,216.276 52.835,216.170 51.895 C 216.064 50.955,215.809 50.082,215.603 49.954 C 215.398 49.827,215.111 48.933,214.967 47.967 C 214.822 47.001,214.556 46.211,214.376 46.211 C 214.196 46.211,214.048 45.795,214.048 45.287 C 214.048 44.778,213.892 44.362,213.701 44.362 C 213.510 44.362,213.242 43.614,213.105 42.699 C 212.967 41.784,212.708 41.035,212.527 41.035 C 212.347 41.035,212.200 40.453,212.200 39.741 C 212.200 39.030,212.052 38.447,211.872 38.447 C 211.692 38.447,211.432 37.699,211.295 36.784 C 211.158 35.869,210.899 35.120,210.721 35.120 C 210.542 35.120,210.284 34.372,210.147 33.457 C 210.010 32.542,209.750 31.793,209.570 31.793 C 209.390 31.793,209.242 31.460,209.242 31.054 C 209.242 30.647,209.091 30.314,208.907 30.314 C 208.723 30.314,208.458 29.482,208.318 28.466 C 208.178 27.449,207.936 26.617,207.780 26.617 C 207.624 26.617,207.393 25.745,207.267 24.679 C 207.141 23.613,206.868 22.684,206.661 22.615 C 206.454 22.546,206.285 22.087,206.285 21.596 C 206.285 21.104,206.140 20.702,205.962 20.702 C 205.785 20.702,205.533 20.037,205.403 19.224 C 205.273 18.410,205.002 17.745,204.802 17.745 C 204.601 17.745,204.436 17.163,204.436 16.451 C 204.436 15.739,204.289 15.157,204.109 15.157 C 203.928 15.157,203.669 14.409,203.531 13.494 C 203.394 12.579,203.141 11.830,202.970 11.830 C 202.798 11.830,202.543 10.998,202.403 9.982 C 202.263 8.965,201.998 8.133,201.814 8.133 C 201.629 8.133,201.479 7.884,201.479 7.579 C 201.479 6.039,199.677 7.012,199.426 8.688 M369.686 153.420 C 369.686 153.623,369.353 153.789,368.946 153.789 C 368.540 153.789,368.207 153.941,368.207 154.126 C 368.207 154.312,367.542 154.576,366.728 154.713 C 365.915 154.851,365.250 155.094,365.250 155.254 C 365.250 155.414,364.710 155.653,364.051 155.785 C 362.537 156.088,360.813 156.842,360.813 157.202 C 360.813 157.354,360.148 157.584,359.335 157.714 C 358.521 157.844,357.856 158.095,357.856 158.273 C 357.856 158.450,357.606 158.595,357.301 158.595 C 356.996 158.595,356.747 158.740,356.747 158.918 C 356.747 159.095,356.081 159.346,355.268 159.477 C 354.455 159.607,353.789 159.862,353.789 160.044 C 353.789 160.225,352.957 160.489,351.941 160.628 C 350.924 160.768,350.092 161.033,350.092 161.218 C 350.092 161.402,349.843 161.553,349.538 161.553 C 349.233 161.553,348.983 161.717,348.983 161.918 C 348.983 162.119,348.318 162.390,347.505 162.520 C 346.691 162.650,346.026 162.888,346.026 163.049 C 346.026 163.210,345.529 163.452,344.921 163.585 C 344.313 163.718,343.721 163.981,343.605 164.169 C 343.489 164.357,343.072 164.510,342.677 164.510 C 342.282 164.510,341.959 164.677,341.959 164.880 C 341.959 165.083,341.555 165.250,341.062 165.250 C 340.568 165.250,339.914 165.499,339.609 165.804 C 339.304 166.109,338.627 166.359,338.104 166.359 C 337.581 166.359,337.153 166.504,337.153 166.681 C 337.153 166.858,336.488 167.110,335.675 167.240 C 334.861 167.370,334.196 167.622,334.196 167.801 C 334.196 167.979,333.593 168.238,332.857 168.376 C 331.588 168.614,330.165 169.234,329.760 169.725 C 329.658 169.848,328.951 170.064,328.189 170.204 C 327.426 170.344,326.802 170.596,326.802 170.764 C 326.802 170.932,326.130 171.178,325.307 171.309 C 323.678 171.570,322.349 172.195,321.886 172.921 C 321.723 173.175,321.265 173.383,320.869 173.383 C 320.472 173.383,320.148 173.549,320.148 173.752 C 320.148 173.956,319.649 174.122,319.039 174.122 C 318.429 174.122,317.930 174.267,317.930 174.444 C 317.930 174.622,317.264 174.873,316.451 175.003 C 315.638 175.133,314.972 175.389,314.972 175.570 C 314.972 175.752,314.140 176.015,313.124 176.155 C 312.107 176.295,311.275 176.560,311.275 176.744 C 311.275 176.929,311.026 177.079,310.721 177.079 C 310.416 177.079,310.166 177.244,310.166 177.445 C 310.166 177.646,309.501 177.917,308.688 178.047 C 307.874 178.177,307.209 178.415,307.209 178.576 C 307.209 178.737,306.712 178.978,306.104 179.112 C 305.496 179.245,304.904 179.508,304.788 179.696 C 304.672 179.883,304.255 180.037,303.860 180.037 C 303.465 180.037,303.142 180.203,303.142 180.407 C 303.142 180.610,302.738 180.776,302.245 180.776 C 301.751 180.776,301.097 181.026,300.792 181.331 C 300.487 181.636,299.893 181.885,299.472 181.885 C 299.051 181.885,298.706 182.033,298.706 182.213 C 298.706 182.393,297.957 182.653,297.043 182.790 C 296.128 182.927,295.379 183.181,295.379 183.354 C 295.379 183.527,294.713 183.781,293.900 183.919 C 293.087 184.056,292.421 184.320,292.421 184.506 C 292.421 184.691,292.006 184.843,291.497 184.843 C 290.989 184.843,290.573 184.995,290.573 185.180 C 290.573 185.366,289.908 185.630,289.094 185.767 C 288.281 185.905,287.616 186.169,287.616 186.354 C 287.616 186.540,287.283 186.691,286.876 186.691 C 286.141 186.691,286.137 186.938,286.137 228.835 L 286.137 270.980 274.861 270.980 L 263.586 270.980 263.586 233.591 L 263.586 196.203 261.830 196.443 C 260.864 196.575,260.018 196.847,259.951 197.048 C 259.883 197.248,259.425 197.412,258.934 197.412 C 258.443 197.412,258.041 197.565,258.041 197.753 C 258.041 197.940,257.542 198.202,256.932 198.336 C 256.322 198.470,255.823 198.718,255.823 198.886 C 255.823 199.054,254.991 199.306,253.974 199.445 C 252.957 199.585,252.126 199.850,252.126 200.035 C 252.126 200.219,251.876 200.370,251.571 200.370 C 251.266 200.370,251.017 200.517,251.017 200.697 C 251.017 200.878,250.226 201.143,249.261 201.288 C 248.295 201.433,247.409 201.706,247.292 201.894 C 247.175 202.083,246.218 202.340,245.166 202.464 C 244.114 202.589,243.253 202.834,243.253 203.009 C 243.253 203.184,243.004 203.327,242.699 203.327 C 242.394 203.327,242.144 203.486,242.144 203.680 C 242.144 203.874,241.562 204.142,240.850 204.276 C 240.139 204.409,239.556 204.666,239.556 204.847 C 239.556 205.028,239.057 205.176,238.447 205.176 C 237.837 205.176,237.338 205.326,237.338 205.511 C 237.338 205.695,236.506 205.960,235.490 206.100 C 234.473 206.240,233.641 206.487,233.641 206.649 C 233.641 206.811,233.226 207.048,232.717 207.176 C 232.209 207.303,231.793 207.571,231.793 207.770 C 231.793 207.970,231.294 208.133,230.684 208.133 C 230.074 208.133,229.575 208.278,229.575 208.456 C 229.575 208.633,228.909 208.884,228.096 209.014 C 227.283 209.144,226.617 209.397,226.617 209.576 C 226.617 209.755,226.201 210.006,225.693 210.133 C 225.185 210.261,224.769 210.528,224.769 210.728 C 224.769 210.927,224.353 211.091,223.845 211.091 C 223.336 211.091,222.921 211.238,222.921 211.418 C 222.921 211.599,222.176 211.858,221.266 211.994 C 220.355 212.131,219.514 212.399,219.395 212.591 C 219.277 212.782,218.857 212.939,218.462 212.939 C 218.068 212.939,217.745 213.084,217.745 213.261 C 217.745 213.439,217.079 213.690,216.266 213.820 L 214.787 214.057 214.787 242.149 L 214.787 270.240 206.285 270.240 L 197.782 270.240 197.782 246.026 L 197.782 221.811 196.673 221.811 C 196.063 221.811,195.564 221.957,195.564 222.134 C 195.564 222.311,194.898 222.563,194.085 222.693 C 193.272 222.823,192.606 223.094,192.606 223.295 C 192.606 223.495,192.357 223.660,192.052 223.660 C 191.747 223.660,191.497 223.805,191.497 223.982 C 191.497 224.160,190.832 224.411,190.018 224.541 C 189.205 224.671,188.540 224.926,188.540 225.108 C 188.540 225.290,187.708 225.553,186.691 225.693 C 185.675 225.833,184.843 226.098,184.843 226.282 C 184.843 226.467,184.593 226.617,184.288 226.617 C 183.983 226.617,183.734 226.768,183.734 226.952 C 183.734 227.137,182.902 227.402,181.885 227.542 C 180.869 227.681,180.037 227.947,180.037 228.131 C 180.037 228.315,179.787 228.466,179.482 228.466 C 179.177 228.466,178.928 228.618,178.928 228.803 C 178.928 228.988,178.262 229.253,177.449 229.390 C 176.636 229.527,175.970 229.776,175.970 229.942 C 175.970 230.109,175.139 230.359,174.122 230.499 C 173.105 230.639,172.274 230.904,172.274 231.088 C 172.274 231.273,171.858 231.423,171.349 231.423 C 170.841 231.423,170.425 231.590,170.425 231.793 C 170.425 231.996,170.046 232.163,169.583 232.163 C 167.458 232.163,167.468 232.074,167.468 250.836 C 167.468 262.047,167.339 268.022,167.098 268.022 C 166.895 268.022,166.728 268.688,166.728 269.501 L 166.728 270.980 159.889 270.980 L 153.050 270.980 153.050 255.083 L 153.050 239.187 152.126 239.187 C 151.617 239.187,151.201 239.338,151.201 239.524 C 151.201 239.709,150.536 239.973,149.723 240.111 C 148.909 240.248,148.244 240.494,148.244 240.656 C 148.244 240.818,147.495 241.063,146.580 241.201 C 145.665 241.338,144.917 241.606,144.917 241.797 C 144.917 241.988,144.584 242.144,144.177 242.144 C 143.771 242.144,143.438 242.300,143.438 242.491 C 143.438 242.682,142.689 242.951,141.774 243.088 C 140.860 243.225,140.111 243.485,140.111 243.665 C 140.111 243.845,139.778 243.993,139.372 243.993 C 138.965 243.993,138.632 244.157,138.632 244.358 C 138.632 244.559,137.967 244.830,137.153 244.960 C 136.340 245.090,135.675 245.339,135.675 245.514 C 135.675 245.689,135.014 245.938,134.206 246.067 C 133.228 246.224,132.665 246.533,132.518 246.996 C 132.397 247.377,132.143 247.689,131.953 247.689 C 131.747 247.689,131.608 252.379,131.608 259.335 L 131.608 270.980 126.248 270.980 L 120.887 270.980 120.887 261.368 L 120.887 251.756 119.963 251.756 C 119.455 251.756,119.039 251.901,119.039 252.078 C 119.039 252.256,118.395 252.504,117.609 252.630 C 116.823 252.755,115.700 253.108,115.114 253.414 C 114.528 253.720,113.674 253.971,113.216 253.972 C 112.759 253.973,112.384 254.140,112.384 254.344 C 112.384 254.547,112.135 254.713,111.830 254.713 C 111.525 254.713,111.275 254.878,111.275 255.079 C 111.275 255.280,110.610 255.551,109.797 255.681 C 108.983 255.811,108.318 256.041,108.318 256.192 C 108.318 256.344,107.652 256.574,106.839 256.704 C 106.026 256.834,105.360 257.105,105.360 257.306 C 105.360 257.507,105.111 257.671,104.806 257.671 C 104.334 257.671,104.251 258.653,104.251 264.292 L 104.251 270.914 102.126 271.039 C 100.957 271.108,99.293 271.113,98.429 271.051 L 96.858 270.937 96.858 266.105 L 96.858 261.273 94.917 261.528 C 93.849 261.668,92.921 261.939,92.853 262.130 C 92.785 262.321,92.494 262.477,92.206 262.477 C 91.918 262.477,91.682 262.643,91.682 262.847 C 91.682 263.050,91.225 263.219,90.665 263.221 C 87.713 263.236,86.357 265.610,88.851 266.397 C 89.290 266.536,89.918 266.958,90.247 267.336 C 90.576 267.713,91.020 268.022,91.235 268.022 C 91.450 268.022,92.124 268.521,92.734 269.131 C 93.344 269.741,94.022 270.240,94.241 270.240 C 94.460 270.240,94.640 270.407,94.640 270.610 C 94.640 270.813,95.037 270.980,95.524 270.980 C 96.175 270.980,96.474 271.241,96.657 271.974 C 96.916 273.006,98.145 274.307,98.860 274.307 C 99.085 274.307,99.582 274.723,99.964 275.231 C 100.346 275.739,100.884 276.155,101.161 276.155 C 101.437 276.155,101.664 276.310,101.664 276.500 C 101.664 276.690,101.988 276.948,102.384 277.073 C 102.780 277.199,103.207 277.626,103.333 278.023 C 103.459 278.419,103.775 278.743,104.035 278.743 C 104.295 278.743,104.892 279.076,105.360 279.482 C 105.829 279.889,106.371 280.222,106.565 280.222 C 106.759 280.222,107.245 280.638,107.645 281.146 C 108.044 281.654,108.540 282.070,108.745 282.070 C 108.951 282.070,109.684 282.652,110.375 283.364 C 111.067 284.076,111.794 284.658,111.991 284.658 C 112.189 284.658,112.767 285.074,113.275 285.582 C 113.783 286.091,114.332 286.507,114.493 286.508 C 114.655 286.509,115.319 287.008,115.969 287.617 C 116.619 288.226,117.265 288.725,117.405 288.725 C 117.545 288.725,118.046 289.140,118.517 289.649 C 118.988 290.157,119.476 290.573,119.602 290.573 C 119.728 290.573,120.063 290.781,120.346 291.035 C 121.489 292.060,121.977 292.421,122.218 292.421 C 122.357 292.421,122.948 292.921,123.531 293.530 C 124.114 294.140,124.778 294.640,125.007 294.640 C 125.236 294.640,125.809 295.055,126.280 295.564 C 126.751 296.072,127.311 296.488,127.524 296.488 C 127.737 296.488,127.911 296.643,127.911 296.833 C 127.911 297.022,128.235 297.280,128.632 297.406 C 129.028 297.532,129.455 297.959,129.581 298.355 C 129.707 298.752,130.022 299.076,130.283 299.076 C 130.543 299.076,131.139 299.409,131.608 299.815 C 132.077 300.222,132.645 300.555,132.871 300.555 C 133.096 300.555,133.593 300.970,133.975 301.479 C 134.357 301.987,134.895 302.403,135.172 302.403 C 135.448 302.403,135.675 302.558,135.675 302.748 C 135.675 302.937,135.999 303.195,136.395 303.321 C 136.791 303.447,137.218 303.874,137.344 304.270 C 137.470 304.667,137.804 304.991,138.086 304.991 C 138.368 304.991,138.995 305.387,139.478 305.871 C 139.962 306.355,140.703 306.860,141.125 306.994 C 141.546 307.128,141.984 307.480,142.098 307.777 C 142.212 308.075,142.491 308.318,142.718 308.318 C 142.945 308.318,143.695 308.900,144.387 309.612 C 145.078 310.323,145.805 310.906,146.003 310.906 C 146.200 310.906,146.758 311.302,147.242 311.786 C 147.726 312.270,148.473 312.777,148.903 312.914 C 149.333 313.050,149.785 313.477,149.908 313.863 C 150.030 314.249,150.496 314.680,150.943 314.820 C 151.390 314.960,152.122 315.468,152.570 315.948 C 153.018 316.428,153.482 316.821,153.602 316.821 C 153.867 316.821,154.735 317.517,155.561 318.392 C 155.897 318.748,156.456 319.039,156.804 319.039 C 157.152 319.039,157.539 319.363,157.665 319.759 C 157.791 320.156,158.249 320.592,158.683 320.730 C 159.117 320.868,159.982 321.519,160.605 322.176 C 161.228 322.834,162.103 323.487,162.550 323.627 C 162.997 323.768,163.466 324.207,163.592 324.603 C 163.718 324.999,164.147 325.323,164.547 325.323 C 164.946 325.323,165.366 325.567,165.480 325.864 C 165.594 326.161,166.036 326.515,166.462 326.650 C 166.888 326.785,167.765 327.457,168.412 328.143 C 169.059 328.829,169.716 329.390,169.872 329.390 C 170.028 329.390,170.541 329.806,171.012 330.314 C 171.483 330.823,172.101 331.238,172.385 331.238 C 172.670 331.238,173.285 331.738,173.752 332.348 C 174.220 332.957,174.835 333.457,175.119 333.457 C 175.403 333.457,176.021 333.872,176.493 334.381 C 176.964 334.889,177.477 335.305,177.634 335.305 C 177.791 335.305,178.304 335.721,178.775 336.229 C 179.247 336.738,179.814 337.153,180.037 337.153 C 180.260 337.153,180.808 337.546,181.256 338.026 C 181.704 338.506,182.436 339.014,182.883 339.154 C 183.330 339.295,183.796 339.725,183.919 340.111 C 184.041 340.497,184.507 340.927,184.954 341.068 C 185.401 341.208,186.133 341.715,186.581 342.196 C 187.029 342.676,187.578 343.068,187.800 343.068 C 188.260 343.068,190.018 344.864,190.018 345.333 C 190.018 345.503,190.434 345.746,190.943 345.874 C 191.451 346.002,191.867 346.243,191.867 346.411 C 191.867 346.578,192.231 346.831,192.675 346.972 C 193.120 347.113,193.993 347.767,194.616 348.424 C 195.239 349.082,196.114 349.735,196.561 349.875 C 197.009 350.015,197.477 350.454,197.603 350.851 C 197.729 351.247,198.158 351.571,198.558 351.571 C 198.957 351.571,199.380 351.821,199.497 352.126 C 199.722 352.713,201.479 352.912,201.479 352.351 C 201.479 352.169,201.884 351.919,202.378 351.795 C 202.873 351.671,203.383 351.237,203.512 350.831 C 203.642 350.423,204.072 350.092,204.473 350.092 C 204.872 350.092,205.292 349.849,205.406 349.552 C 205.520 349.255,205.962 348.901,206.388 348.766 C 206.814 348.631,207.672 347.982,208.294 347.325 C 208.917 346.667,209.801 346.011,210.259 345.868 C 210.716 345.724,211.091 345.451,211.091 345.262 C 211.091 345.072,211.270 344.917,211.489 344.917 C 211.709 344.917,212.547 344.251,213.352 343.438 C 214.157 342.625,215.041 341.959,215.317 341.959 C 215.592 341.959,215.913 341.710,216.030 341.405 C 216.147 341.100,216.581 340.850,216.994 340.850 C 217.407 340.850,217.745 340.708,217.745 340.535 C 217.745 339.999,219.528 338.262,220.078 338.262 C 220.365 338.262,220.904 337.857,221.276 337.361 C 221.649 336.864,222.326 336.365,222.782 336.251 C 223.238 336.136,223.716 335.710,223.845 335.304 C 223.974 334.898,224.367 334.566,224.719 334.566 C 225.070 334.566,225.766 334.074,226.265 333.472 C 226.764 332.871,227.388 332.372,227.652 332.363 C 227.916 332.355,228.498 331.955,228.946 331.475 C 229.393 330.995,230.126 330.487,230.573 330.347 C 231.020 330.206,231.488 329.767,231.614 329.371 C 231.740 328.975,232.146 328.651,232.517 328.651 C 232.920 328.651,233.281 328.295,233.413 327.767 C 233.548 327.232,234.000 326.792,234.562 326.651 C 235.072 326.523,235.490 326.255,235.490 326.056 C 235.490 325.856,235.733 325.693,236.030 325.693 C 236.327 325.693,237.207 325.050,237.985 324.264 C 238.763 323.478,239.768 322.718,240.218 322.576 C 240.667 322.433,241.035 322.161,241.035 321.971 C 241.035 321.782,241.204 321.627,241.411 321.627 C 241.618 321.627,242.353 321.044,243.044 320.333 C 243.735 319.621,244.468 319.039,244.673 319.039 C 244.877 319.039,245.544 318.540,246.154 317.930 C 246.764 317.320,247.381 316.821,247.526 316.821 C 247.671 316.821,248.175 316.405,248.646 315.896 C 249.117 315.388,249.669 314.972,249.873 314.972 C 250.077 314.972,250.640 314.576,251.124 314.092 C 251.608 313.608,252.355 313.101,252.785 312.964 C 253.215 312.828,253.667 312.401,253.789 312.015 C 253.912 311.629,254.378 311.198,254.825 311.058 C 255.272 310.918,256.004 310.410,256.452 309.930 C 256.900 309.450,257.364 309.057,257.484 309.057 C 257.749 309.057,258.617 308.361,259.443 307.486 C 259.779 307.130,260.265 306.839,260.523 306.839 C 260.781 306.839,261.200 306.506,261.454 306.100 C 261.708 305.693,262.118 305.360,262.367 305.360 C 262.615 305.360,263.455 304.717,264.233 303.931 C 265.011 303.145,266.007 302.388,266.446 302.249 C 266.886 302.110,267.348 301.671,267.474 301.275 C 267.599 300.879,267.990 300.555,268.342 300.555 C 268.693 300.555,269.389 300.062,269.888 299.461 C 270.387 298.860,271.011 298.361,271.275 298.352 C 271.538 298.343,272.140 297.921,272.611 297.412 C 273.082 296.904,273.596 296.488,273.752 296.488 C 273.909 296.488,274.423 296.072,274.894 295.564 C 275.365 295.055,275.950 294.640,276.194 294.640 C 276.439 294.640,277.237 293.996,277.968 293.210 C 278.699 292.423,279.672 291.664,280.129 291.521 C 280.587 291.379,280.961 291.107,280.961 290.918 C 280.961 290.728,281.149 290.573,281.380 290.573 C 281.610 290.573,282.327 290.012,282.974 289.326 C 283.621 288.640,284.499 287.968,284.925 287.833 C 285.350 287.698,285.792 287.344,285.906 287.047 C 286.020 286.750,286.440 286.506,286.840 286.506 C 287.239 286.506,287.669 286.182,287.794 285.786 C 287.920 285.390,288.389 284.951,288.836 284.810 C 289.283 284.670,290.158 284.017,290.781 283.359 C 291.404 282.702,292.269 282.051,292.703 281.913 C 293.137 281.775,293.596 281.339,293.721 280.942 C 293.847 280.546,294.277 280.222,294.676 280.222 C 295.075 280.222,295.495 279.979,295.610 279.681 C 295.724 279.384,296.165 279.030,296.591 278.895 C 297.017 278.760,297.875 278.111,298.498 277.454 C 299.121 276.796,299.996 276.143,300.443 276.003 C 300.890 275.863,301.359 275.424,301.485 275.027 C 301.611 274.631,301.988 274.307,302.324 274.307 C 303.002 274.307,304.621 272.601,304.621 271.886 C 304.621 271.377,305.433 270.980,306.475 270.980 C 306.851 270.980,307.265 270.647,307.394 270.240 C 307.523 269.834,307.908 269.496,308.250 269.491 C 308.593 269.485,309.358 268.986,309.951 268.382 C 310.544 267.777,311.176 267.283,311.355 267.283 C 311.534 267.283,312.066 266.867,312.537 266.359 C 313.008 265.850,313.522 265.434,313.678 265.434 C 313.835 265.434,314.349 265.018,314.820 264.510 C 315.291 264.002,315.874 263.586,316.116 263.586 C 316.358 263.586,317.033 263.087,317.616 262.477 C 318.199 261.867,318.848 261.368,319.060 261.368 C 319.271 261.368,319.829 260.952,320.300 260.444 C 320.771 259.935,321.285 259.519,321.441 259.519 C 321.597 259.519,322.273 258.937,322.944 258.226 C 323.616 257.514,324.317 256.932,324.503 256.932 C 324.689 256.932,325.224 256.599,325.693 256.192 C 326.162 255.786,326.759 255.453,327.019 255.453 C 327.279 255.453,327.595 255.129,327.720 254.732 C 327.846 254.336,328.273 253.909,328.670 253.783 C 329.066 253.658,329.390 253.399,329.390 253.210 C 329.390 253.020,329.616 252.865,329.893 252.865 C 330.169 252.865,330.708 252.449,331.090 251.941 C 331.471 251.433,331.986 251.017,332.234 251.017 C 332.481 251.017,333.099 250.601,333.608 250.092 C 334.116 249.584,334.669 249.168,334.836 249.168 C 335.004 249.168,335.415 248.877,335.751 248.521 C 336.578 247.646,337.445 246.950,337.710 246.950 C 337.830 246.950,338.314 246.534,338.785 246.026 C 339.256 245.518,339.822 245.102,340.044 245.102 C 340.266 245.102,340.863 244.686,341.371 244.177 C 341.880 243.669,342.410 243.253,342.549 243.253 C 342.689 243.253,343.280 242.754,343.863 242.144 C 344.446 241.534,345.154 241.035,345.435 241.035 C 345.716 241.035,346.043 240.786,346.160 240.481 C 346.277 240.176,346.699 239.926,347.098 239.926 C 347.498 239.926,347.927 239.602,348.053 239.206 C 348.179 238.809,348.606 238.382,349.002 238.256 C 349.399 238.131,349.723 237.867,349.723 237.671 C 349.723 237.475,350.014 237.207,350.370 237.075 C 350.726 236.943,351.266 236.556,351.571 236.215 C 351.876 235.874,352.491 235.480,352.939 235.339 C 353.386 235.198,353.852 234.767,353.974 234.381 C 354.097 233.995,354.521 233.576,354.917 233.451 C 355.314 233.325,355.638 233.085,355.638 232.917 C 355.638 232.750,356.043 232.511,356.537 232.387 C 357.032 232.263,357.542 231.829,357.671 231.422 C 357.800 231.016,358.119 230.684,358.379 230.684 C 358.639 230.684,359.235 230.351,359.704 229.945 C 360.173 229.538,360.770 229.205,361.030 229.205 C 361.290 229.205,361.606 228.881,361.732 228.485 C 361.857 228.088,362.284 227.661,362.681 227.536 C 363.077 227.410,363.401 227.152,363.401 226.962 C 363.401 226.773,363.580 226.617,363.799 226.617 C 364.018 226.617,364.696 226.118,365.306 225.508 C 365.916 224.898,366.652 224.399,366.942 224.399 C 367.659 224.399,367.610 223.054,366.883 222.775 C 366.561 222.652,365.480 222.551,364.480 222.551 C 363.480 222.551,362.662 222.404,362.662 222.225 C 362.662 222.046,361.081 221.781,359.150 221.636 C 357.218 221.491,355.638 221.222,355.638 221.038 C 355.638 220.853,354.806 220.702,353.789 220.702 C 352.773 220.702,351.941 220.552,351.941 220.368 C 351.941 220.185,350.194 219.915,348.059 219.770 C 345.924 219.624,344.177 219.359,344.177 219.180 C 344.177 219.000,343.688 218.854,343.090 218.854 C 342.492 218.854,341.910 218.703,341.796 218.519 C 341.682 218.334,340.008 218.065,338.077 217.920 C 336.146 217.775,334.566 217.510,334.566 217.331 C 334.566 217.152,333.900 217.006,333.087 217.006 C 332.019 217.006,331.608 216.852,331.608 216.451 C 331.608 216.146,331.763 215.896,331.953 215.896 C 332.143 215.896,332.416 215.522,332.560 215.065 C 332.705 214.607,333.119 214.025,333.480 213.770 C 333.842 213.516,334.247 212.809,334.381 212.199 C 334.515 211.589,334.774 211.091,334.958 211.091 C 335.141 211.091,335.395 210.675,335.523 210.166 C 335.650 209.658,335.903 209.242,336.084 209.242 C 336.266 209.242,336.414 209.053,336.414 208.822 C 336.414 208.592,336.833 208.014,337.345 207.540 C 337.857 207.065,338.376 206.177,338.498 205.567 C 338.620 204.957,339.016 204.364,339.377 204.250 C 339.761 204.128,340.131 203.519,340.270 202.781 C 340.419 201.985,340.774 201.435,341.233 201.290 C 341.632 201.163,341.959 200.775,341.959 200.427 C 341.959 200.079,342.292 199.510,342.699 199.162 C 343.105 198.813,343.438 198.277,343.438 197.970 C 343.438 197.663,343.604 197.412,343.808 197.412 C 344.011 197.412,344.177 197.163,344.177 196.858 C 344.177 196.553,344.344 196.303,344.547 196.303 C 344.750 196.303,344.917 195.965,344.917 195.552 C 344.917 195.139,345.151 194.711,345.438 194.601 C 345.725 194.491,346.061 193.997,346.184 193.504 C 346.308 193.010,346.573 192.606,346.772 192.606 C 346.972 192.606,347.135 192.357,347.135 192.052 C 347.135 191.747,347.290 191.497,347.480 191.497 C 347.669 191.497,347.943 191.123,348.087 190.665 C 348.232 190.208,348.648 189.574,349.012 189.257 C 349.375 188.940,349.786 188.233,349.923 187.686 C 350.060 187.139,350.310 186.691,350.477 186.691 C 350.645 186.691,350.900 186.317,351.045 185.860 C 351.189 185.402,351.616 184.759,351.994 184.430 C 352.371 184.101,352.680 183.638,352.680 183.402 C 352.680 183.165,352.913 182.882,353.198 182.772 C 353.483 182.663,353.817 182.039,353.939 181.386 C 354.062 180.732,354.494 179.959,354.900 179.666 C 355.306 179.374,355.638 178.916,355.638 178.650 C 355.638 178.383,355.887 178.070,356.192 177.953 C 356.497 177.836,356.747 177.443,356.747 177.079 C 356.747 176.716,356.996 176.323,357.301 176.206 C 357.606 176.089,357.856 175.739,357.856 175.427 C 357.856 175.116,358.019 174.861,358.218 174.861 C 358.418 174.861,358.685 174.445,358.813 173.937 C 358.941 173.429,359.193 173.013,359.375 173.013 C 359.556 173.013,359.704 172.698,359.704 172.313 C 359.704 171.928,359.954 171.518,360.259 171.401 C 360.564 171.283,360.813 170.933,360.813 170.622 C 360.813 170.310,360.980 170.055,361.183 170.055 C 361.386 170.055,361.553 169.746,361.553 169.368 C 361.553 168.990,361.959 168.375,362.455 168.003 C 362.951 167.630,363.461 166.910,363.588 166.402 C 363.716 165.894,364.118 165.219,364.482 164.902 C 364.846 164.585,365.273 163.917,365.430 163.418 C 365.588 162.920,365.944 162.284,366.223 162.006 C 366.501 161.727,366.728 161.302,366.728 161.059 C 366.728 160.817,367.144 160.307,367.652 159.925 C 368.161 159.543,368.577 158.922,368.577 158.543 C 368.577 158.165,368.725 157.856,368.906 157.856 C 369.088 157.856,369.340 157.440,369.468 156.932 C 369.595 156.423,369.863 156.007,370.062 156.007 C 370.262 156.007,370.425 155.758,370.425 155.453 C 370.425 155.148,370.591 154.898,370.795 154.898 C 370.998 154.898,371.165 154.482,371.165 153.974 C 371.165 153.296,370.967 153.050,370.425 153.050 C 370.018 153.050,369.686 153.216,369.686 153.420 " stroke="none" fill="#040404" fill-rule="evenodd"/><path id="path1" d="" stroke="none" fill="#080404" fill-rule="evenodd"/><path id="path2" d="" stroke="none" fill="#080404" fill-rule="evenodd"/><path id="path3" d="" stroke="none" fill="#080404" fill-rule="evenodd"/><path id="path4" d="" stroke="none" fill="#080404" fill-rule="evenodd"/></g></svg>