<svg id="Capa_1" enable-background="new 0 0 512 512" height="512" viewBox="0 0 512 512" width="512" xmlns="http://www.w3.org/2000/svg"><g><path d="m322.335 312.941-60.056 27.682c-1.992.918-4.135 1.377-6.279 1.377s-4.287-.459-6.279-1.377l-60.056-27.682-94.4 177.001c-5.329 9.991 1.911 22.058 13.235 22.058h295c11.324 0 18.564-12.067 13.235-22.059z"/><path d="m308.193 286.425-38.958-73.047c-5.647-10.588-20.824-10.588-26.471 0l-38.958 73.047 52.194 24.058z"/><path d="m271 178v-70h85c5.199 0 10.027-2.692 12.76-7.114s2.981-9.944.657-14.594l-16.558-33.116 16.416-31.189c2.447-4.65 2.283-10.241-.433-14.739-2.716-4.499-7.588-7.248-12.842-7.248h-100c-8.284 0-15 6.716-15 15v78 85c4.739-1.672 9.799-2.562 15-2.562s10.261.89 15 2.562z"/><path d="m510.235 489.941-128-240c-2.607-4.888-7.695-7.941-13.235-7.941s-10.628 3.053-13.235 7.941l-16.515 30.965 103.956 194.917c6.068 11.377 6.952 24.383 2.737 36.176h51.057c5.269 0 10.151-2.765 12.862-7.283 2.711-4.517 2.853-10.126.373-14.775z"/><path d="m172.75 280.906-16.515-30.965c-2.607-4.888-7.695-7.941-13.235-7.941s-10.628 3.053-13.235 7.941l-128 240c-2.479 4.649-2.338 10.258.373 14.776s7.593 7.283 12.862 7.283h51.057c-4.215-11.793-3.331-24.799 2.737-36.176z"/></g></svg>