<svg xmlns="http://www.w3.org/2000/svg" id="Capa_1" enable-background="new 0 0 512.012 512.012" viewBox="0 0.01 512.01 511.99"><g><g id="Page-1_66_"><g id="_x30_67---Contact-Us" clip-rule="evenodd" fill-rule="evenodd" transform="translate(-1)"><path id="Path_270_" d="m69.382 91.439c4.801-.016 9.409 1.887 12.8 5.285l77.056 77.147c7.054 7.076 7.054 18.524 0 25.6l-12.8 12.8-102.729-102.72 12.8-12.8c3.422-3.399 8.049-5.309 12.873-5.312z"/><path id="Path_269_" d="m363.398 509.322c-1.665 1.666-3.908 2.626-6.263 2.679h-2.03c-32.521 0-136.393-9.033-240.731-113.371-106.615-106.606-113.719-212.745-113.362-242.661.022-2.405.991-4.704 2.697-6.4l27.081-27.045 102.711 102.683-15.333 15.333c-9.458 9.374-10.738 24.217-3.026 35.072 17.096 23.343 36.161 45.176 56.987 65.262 20.073 20.82 41.898 39.877 65.234 56.96 10.852 7.745 25.718 6.483 35.109-2.981l15.342-15.342 102.683 102.72z"/><path id="Path_268_" d="m416.271 456.55-12.8 12.8-102.729-102.711 12.8-12.8c7.069-7.069 18.531-7.069 25.6 0l77.147 77.038c7.013 7.124 7.005 18.559-.018 25.673z"/><path id="Path_267_" d="m513.012 18.296v182.857c-.009 1.38-.178 2.755-.503 4.096l-91.173-95.525 91.173-95.515c.326 1.338.494 2.71.503 4.087z"/><path id="Path_266_" d="m494.726.01c1.779.028 3.544.317 5.239.859l-113.244 118.62c-11.076 10.963-28.914 10.963-39.991 0l-113.243-118.619c1.695-.542 3.46-.832 5.239-.859h256z"/><path id="Path_265_" d="m220.943 205.249c-.325-1.341-.494-2.716-.503-4.096v-182.857c.008-1.377.177-2.749.503-4.087l91.173 95.515z"/><path id="Path_264_" d="m238.726 219.439c-1.779-.028-3.544-.317-5.239-.859l91.273-95.607 8.75 9.143c8.687 9.041 20.683 14.15 33.221 14.15s24.534-5.11 33.221-14.15l8.741-9.143 91.273 95.607c-1.695.542-3.46.832-5.239.859z"/></g></g></g></svg>