<svg xmlns="http://www.w3.org/2000/svg" version="1.0" preserveAspectRatio="xMidYMid meet" viewBox="42.1 35 115.1 181.5">

<g transform="translate(0.000000,254.000000) scale(0.100000,-0.100000)" fill="#000000" stroke="none">
<path d="M445 2148 l25 -43 0 -715 c0 -485 4 -728 11 -755 24 -89 91 -136 221 -156 145 -21 246 -56 278 -94 12 -14 15 -14 34 4 33 31 103 58 196 75 172 33 189 38 229 66 81 59 75 3 81 840 l5 745 23 38 24 37 -576 0 -575 0 24 -42z m715 -153 c10 -12 10 -18 0 -30 -9 -11 -40 -15 -123 -17 l-112 -3 -3 -27 c-4 -34 5 -37 165 -40 136 -3 162 -14 195 -79 l18 -34 -302 -3 c-165 -1 -303 0 -305 2 -10 10 30 67 64 93 21 15 65 56 98 90 l60 63 116 0 c91 0 119 -3 129 -15z m140 -302 c0 -20 -43 -75 -72 -93 -30 -18 -51 -20 -231 -20 -211 0 -230 4 -273 52 -12 12 -25 33 -29 46 l-6 22 305 0 c168 0 306 -3 306 -7z m168 -633 c2 -190 0 -364 -3 -387 -7 -47 -42 -96 -85 -118 -15 -8 -74 -22 -131 -31 -102 -16 -195 -44 -233 -70 -15 -10 -22 -10 -40 1 -36 24 -130 53 -213 65 -120 19 -168 37 -203 76 l-30 35 0 389 0 390 468 -2 467 -3 3 -345z"/>
<path d="M962 1250 c-35 -63 -46 -69 -78 -45 -10 8 -22 15 -25 15 -4 0 2 -37 12 -82 30 -136 24 -146 -49 -75 -25 23 -46 37 -49 31 -13 -36 -28 -43 -68 -34 -22 5 -41 7 -43 5 -2 -2 3 -26 12 -52 16 -46 16 -49 -2 -63 -17 -13 -13 -19 62 -84 45 -38 82 -75 84 -82 2 -7 -2 -23 -8 -34 -6 -12 -10 -23 -8 -25 2 -2 32 3 68 10 115 25 110 29 110 -75 0 -73 3 -90 15 -90 12 0 15 17 15 90 0 104 -5 100 110 75 36 -7 66 -12 67 -11 2 2 -2 17 -8 34 -12 36 -21 25 95 121 63 52 64 54 45 70 -19 15 -19 18 -4 60 23 66 23 66 -58 44 -12 -3 -21 4 -30 26 l-13 31 -44 -45 c-44 -44 -70 -57 -70 -32 0 6 9 50 19 97 11 47 18 87 16 89 -2 1 -14 -4 -27 -13 -36 -25 -46 -20 -78 44 -17 33 -31 60 -33 60 -1 0 -17 -27 -35 -60z"/>
</g>
</svg>