<svg xmlns="http://www.w3.org/2000/svg" version="1.0" preserveAspectRatio="xMidYMid meet" viewBox="42.1 31.06 253.1 253.09">

<g transform="translate(0.000000,310.000000) scale(0.100000,-0.100000)" fill="#000000" stroke="none">
<path d="M1488 2780 c-23 -14 -37 -60 -51 -174 l-12 -97 -110 -45 c-60 -25 -117 -47 -126 -50 -9 -3 -50 21 -102 60 -98 74 -126 85 -165 65 -35 -18 -233 -216 -251 -251 -20 -39 -9 -67 65 -165 39 -52 63 -93 60 -102 -3 -9 -25 -65 -50 -126 l-45 -110 -103 -12 c-56 -7 -115 -17 -129 -24 -45 -18 -51 -49 -47 -244 4 -214 -3 -204 154 -228 59 -10 113 -22 120 -28 22 -18 107 -232 98 -245 -5 -7 -37 -52 -71 -100 -35 -48 -63 -97 -63 -110 0 -28 72 -116 170 -207 102 -94 117 -101 166 -77 21 11 70 45 108 75 38 30 72 55 76 55 4 0 41 -15 81 -34 41 -18 95 -41 120 -50 l46 -17 7 -72 c11 -119 25 -175 49 -192 32 -22 373 -22 404 0 27 19 39 63 49 170 7 88 13 100 50 109 13 4 67 25 119 47 l94 40 62 -49 c34 -28 84 -62 111 -77 l49 -27 38 26 c44 31 220 208 245 248 16 25 16 28 -3 65 -11 22 -45 73 -76 113 -30 41 -53 79 -51 85 3 5 24 57 48 115 24 58 47 110 51 116 3 6 44 14 89 18 111 10 155 22 173 50 22 34 23 368 1 402 -17 25 -70 39 -193 50 l-72 6 -49 124 -50 124 24 35 c13 20 41 59 63 88 61 82 64 92 45 129 -25 48 -237 256 -270 264 -33 8 -65 -8 -164 -83 l-73 -56 -76 33 c-42 18 -98 39 -124 48 -53 18 -50 11 -67 151 -12 107 -21 128 -56 141 -33 13 -364 12 -386 0z m357 -645 c112 -29 183 -71 280 -169 98 -99 143 -171 169 -271 39 -155 26 -307 -39 -443 -51 -107 -190 -246 -296 -296 -136 -65 -313 -80 -452 -40 -127 38 -279 156 -357 280 -66 104 -90 192 -90 326 0 130 13 187 67 290 77 148 239 281 393 324 65 18 253 17 325 -1z"/>
<path d="M1506 1841 c-100 -101 -175 -184 -171 -190 4 -7 45 -11 105 -11 l100 0 2 -292 3 -293 147 -3 148 -3 2 293 3 293 103 3 c89 2 102 5 102 20 0 18 -338 362 -355 362 -6 0 -91 -81 -189 -179z"/>
</g>
</svg>