<svg xmlns="http://www.w3.org/2000/svg" id="Capa_1" enable-background="new 0 0 512 512" viewBox="0 112.94 512 286.12"><g><g clip-rule="evenodd" fill-rule="evenodd"><path d="m67.765 346.354c0-12.475 10.113-22.588 22.588-22.588s22.588 10.113 22.588 22.588-10.113 22.588-22.588 22.588-22.588-10.112-22.588-22.588zm75.294 0c0-29.109-23.597-52.706-52.706-52.706s-52.706 23.597-52.706 52.706 23.597 52.706 52.706 52.706 52.706-23.597 52.706-52.706zm150.588 0c0-12.475 10.113-22.588 22.588-22.588s22.588 10.113 22.588 22.588-10.113 22.588-22.588 22.588-22.588-10.112-22.588-22.588zm75.294 0c0-29.109-23.597-52.706-52.706-52.706s-52.706 23.597-52.706 52.706 23.597 52.706 52.706 52.706 52.706-23.597 52.706-52.706z"/><path d="m22.588 346.354h-7.529c-8.317 0-15.059-6.742-15.059-15.058v-82.824c0-8.317 6.742-15.059 15.059-15.059h301.176c8.317 0 15.059 6.742 15.059 15.059v31.797c-4.843-1.099-9.883-1.679-15.059-1.679-37.425 0-67.765 30.339-67.765 67.765h-90.353c0-37.425-30.339-67.765-67.765-67.765s-67.764 30.339-67.764 67.764z"/><path d="m331.294 128.002c0-9.206-8.188-16.258-17.293-14.892l-301.176 45.176c-7.372 1.106-12.825 7.438-12.825 14.892v67.765c0 8.317 6.742 15.059 15.059 15.059s15.059-6.742 15.059-15.059v-54.814l271.059-40.809v110.682c0 8.317 6.742 15.059 15.059 15.059s15.059-6.742 15.059-15.059v-128zm102.644 136.302c-9.751-3.25-19.821 4.008-19.821 14.286v75.294c0 8.317 6.742 15.059 15.059 15.059h67.765c8.317 0 15.059-6.742 15.059-15.059v-52.706c0-6.482-4.148-12.236-10.297-14.286zm-19.82-45.95h-52.728c-4.146 0-7.507 3.338-7.507 7.6v14.918c0 4.197 3.431 7.6 7.495 7.6h67.799c8.317 0 15.059-6.742 15.059-15.059v-90.364c0-4.152-3.338-7.518-7.6-7.518h-14.918c-4.197 0-7.6 3.349-7.6 7.496z"/></g></g></svg>