<svg xmlns="http://www.w3.org/2000/svg" version="1.1" viewBox="0 -31 512 512">
<g id="surface1">
<path d="M 151 270 C 117.910156 270 91 296.910156 91 330 L 91 360 L 211 360 L 211 330 C 211 296.910156 184.089844 270 151 270 Z M 151 270 " style=" stroke:none;fill-rule:nonzero;fill:rgb(0%,0%,0%);fill-opacity:1;" />
<path d="M 151 240 C 167.539062 240 181 226.539062 181 210 C 181 193.460938 167.539062 180 151 180 C 134.460938 180 121 193.460938 121 210 C 121 226.539062 134.460938 240 151 240 Z M 151 240 " style=" stroke:none;fill-rule:nonzero;fill:rgb(0%,0%,0%);fill-opacity:1;" />
<path d="M 467 90 L 324.410156 90 L 317.933594 115.914062 C 312.910156 135.980469 294.964844 150 274.28125 150 L 237.71875 150 C 217.035156 150 199.089844 135.980469 194.066406 115.914062 L 187.589844 90 L 45 90 C 20.1875 90 0 110.1875 0 135 L 0 405 C 0 429.8125 20.1875 450 45 450 L 467 450 C 491.8125 450 512 429.8125 512 405 L 512 135 C 512 110.1875 491.8125 90 467 90 Z M 286 180 L 377 180 C 385.289062 180 392 186.710938 392 195 C 392 203.289062 385.289062 210 377 210 L 286 210 C 277.710938 210 271 203.289062 271 195 C 271 186.710938 277.710938 180 286 180 Z M 241 375 C 241 383.289062 234.289062 390 226 390 L 76 390 C 67.710938 390 61 383.289062 61 375 L 61 330 C 61 296.085938 80.074219 266.851562 107.851562 251.511719 C 97.46875 240.722656 91 226.128906 91 210 C 91 176.910156 117.910156 150 151 150 C 184.089844 150 211 176.910156 211 210 C 211 226.128906 204.535156 240.722656 194.152344 251.511719 C 221.929688 266.851562 241 296.085938 241 330 Z M 437 390 L 286 390 C 277.710938 390 271 383.289062 271 375 C 271 366.710938 277.710938 360 286 360 L 437 360 C 445.289062 360 452 366.710938 452 375 C 452 383.289062 445.289062 390 437 390 Z M 437 330 L 286 330 C 277.710938 330 271 323.289062 271 315 C 271 306.710938 277.710938 300 286 300 L 437 300 C 445.289062 300 452 306.710938 452 315 C 452 323.289062 445.289062 330 437 330 Z M 437 270 L 286 270 C 277.710938 270 271 263.289062 271 255 C 271 246.710938 277.710938 240 286 240 L 437 240 C 445.289062 240 452 246.710938 452 255 C 452 263.289062 445.289062 270 437 270 Z M 437 270 " style=" stroke:none;fill-rule:nonzero;fill:rgb(0%,0%,0%);fill-opacity:1;" />
<path d="M 215.21875 0 C 210.605469 0 206.238281 2.125 203.398438 5.769531 C 200.554688 9.402344 199.546875 14.148438 200.671875 18.632812 L 223.171875 108.632812 C 224.84375 115.3125 230.835938 120 237.71875 120 L 274.28125 120 C 281.167969 120 287.15625 115.3125 288.828125 108.632812 L 311.328125 18.632812 C 312.457031 14.148438 311.445312 9.402344 308.601562 5.769531 C 305.761719 2.125 301.394531 0 296.78125 0 Z M 215.21875 0 " style=" stroke:none;fill-rule:nonzero;fill:rgb(0%,0%,0%);fill-opacity:1;" />
</g>
</svg>