<svg xmlns="http://www.w3.org/2000/svg" id="Layer_1" enable-background="new 0 0 511.941 511.941" viewBox="58.52 0 394.89 511.94"><g><path d="m256.112 94.663c-56.765 0-102.947 46.182-102.947 102.947 5.655 136.572 200.259 136.533 205.894-.001 0-56.765-46.182-102.946-102.947-102.946zm-15.001 24.902h30.002v30h-30.002zm47.335 148.089h-64.667v-30h17.333v-40.086h-13.333v-30h43.333v70.086h17.333v30z"/><path d="m268.747 466.506c35.265-43.352 74.132-83.233 115.522-118.538 138.944-118.202 54.358-347.924-128.156-347.931h-.001c-105.937-2.149-199.155 90.535-197.568 196.488-.312 57.607 24.454 112.346 67.947 150.182 44.336 38.568 83.699 78.878 116.995 119.81l12.547 15.424h-160.255v30h320.668v-30h-160.255zm-145.582-268.896c0-73.308 59.64-132.947 132.947-132.947 176.372 7.303 176.321 258.618-.001 265.894-73.306-.001-132.946-59.64-132.946-132.947z"/></g></svg>