<?xml version="1.0" standalone="no"?>
<!DOCTYPE svg PUBLIC "-//W3C//DTD SVG 20010904//EN"
 "http://www.w3.org/TR/2001/REC-SVG-20010904/DTD/svg10.dtd">
<svg version="1.0" xmlns="http://www.w3.org/2000/svg"
 width="4096.000000pt" height="4096.000000pt" viewBox="0 0 4096.000000 4096.000000"
 preserveAspectRatio="xMidYMid meet">

<g transform="translate(0.000000,4096.000000) scale(0.100000,-0.100000)"
fill="#000000" stroke="none">
<path d="M13195 36853 c-270 -16 -407 -27 -565 -44 -1577 -171 -3074 -726
-4380 -1624 -2080 -1432 -3519 -3630 -3985 -6091 -66 -346 -108 -658 -142
-1054 -17 -194 -18 -583 -18 -7550 0 -7688 -2 -7394 41 -7815 75 -746 261
-1560 519 -2270 551 -1517 1486 -2881 2710 -3950 1454 -1272 3258 -2071 5175
-2295 505 -59 -152 -54 7795 -58 7396 -3 7418 -3 7830 34 1683 150 3303 754
4688 1746 917 657 1723 1485 2359 2423 903 1331 1457 2879 1602 4480 37 406
37 424 34 7835 -4 7884 0 7275 -54 7755 -238 2142 -1205 4144 -2744 5685
-1408 1409 -3197 2335 -5156 2670 -327 56 -704 98 -1079 120 -152 9 -14486 12
-14630 3z m17135 -5482 c477 -111 855 -455 1004 -913 52 -160 61 -223 61 -423
0 -193 -11 -269 -61 -422 -221 -677 -938 -1074 -1627 -899 -493 126 -867 500
-993 994 -134 528 68 1094 509 1423 175 131 370 214 597 255 110 20 399 11
510 -15z m-9190 -2725 c1617 -138 3102 -717 4364 -1700 495 -386 973 -857
1362 -1341 955 -1189 1556 -2608 1743 -4115 46 -369 55 -534 55 -1010 0 -476
-9 -641 -55 -1010 -274 -2205 -1435 -4202 -3224 -5547 -1137 -854 -2479 -1396
-3895 -1572 -557 -70 -1218 -79 -1785 -25 -2011 190 -3864 1112 -5249 2609
-1158 1253 -1895 2840 -2105 4535 -45 362 -55 536 -55 995 -1 449 6 603 44
937 192 1687 899 3262 2033 4533 134 150 443 460 607 609 806 733 1746 1296
2773 1660 685 243 1434 399 2148 445 90 6 184 13 209 15 115 10 858 -4 1030
-18z"/>
<path d="M20105 25930 c-511 -38 -1058 -155 -1515 -325 -1082 -403 -2011
-1135 -2650 -2090 -190 -283 -415 -709 -536 -1015 -512 -1296 -512 -2744 0
-4040 76 -191 273 -589 378 -765 549 -915 1317 -1629 2259 -2101 1391 -696
3016 -763 4474 -183 198 79 564 259 750 371 1095 656 1917 1648 2350 2838 129
355 215 699 269 1083 37 257 47 376 53 662 29 1322 -414 2591 -1258 3606 -450
540 -1014 1001 -1619 1323 -651 345 -1284 538 -2040 621 -171 19 -734 28 -915
15z"/>
</g>
</svg>
