<?xml version="1.0" standalone="no"?>
<!DOCTYPE svg PUBLIC "-//W3C//DTD SVG 20010904//EN"
 "http://www.w3.org/TR/2001/REC-SVG-20010904/DTD/svg10.dtd">
<svg version="1.0" xmlns="http://www.w3.org/2000/svg"
 width="666.000000pt" height="591.000000pt" viewBox="0 0 666.000000 591.000000"
 preserveAspectRatio="xMidYMid meet">

<g transform="translate(0.000000,591.000000) scale(0.100000,-0.100000)"
fill="#000000" stroke="none">
<path d="M1660 5413 c-92 -32 -163 -98 -198 -185 -16 -40 -17 -171 -22 -1788
l-5 -1745 -23 -33 c-54 -75 -156 -92 -228 -37 -69 52 -64 -63 -64 1630 l0
1535 -178 0 c-135 0 -192 -4 -232 -16 -108 -32 -182 -106 -214 -214 -14 -48
-16 -205 -16 -1544 0 -1462 1 -1493 20 -1575 44 -182 170 -342 332 -420 152
-74 91 -71 1357 -71 l1134 0 -84 63 c-199 151 -374 351 -468 536 l-21 40 -283
3 -284 3 -37 29 c-90 68 -86 190 8 260 25 20 43 21 248 24 l220 3 -6 32 c-32
157 -38 230 -33 414 l4 193 -186 0 c-174 0 -190 2 -231 23 -64 32 -85 66 -85
137 0 63 16 95 69 134 25 20 45 21 276 26 l249 5 66 130 c80 160 171 289 291
411 l91 93 -472 3 -472 3 -37 29 c-68 52 -67 38 -64 621 3 511 3 524 24 551
11 15 33 37 48 48 27 21 30 21 1366 21 1336 0 1339 0 1366 -21 15 -11 37 -33
48 -48 20 -27 21 -41 24 -489 l3 -462 64 -34 c177 -91 384 -258 508 -410 l67
-82 0 959 c0 865 -2 963 -17 1008 -34 102 -105 173 -206 208 -43 15 -213 16
-1860 16 -1621 -1 -1817 -3 -1857 -17z"/>
<path d="M4090 3614 c-459 -57 -855 -333 -1057 -739 -54 -107 -87 -200 -115
-326 -33 -149 -33 -398 0 -548 61 -274 183 -492 386 -689 216 -209 462 -329
756 -369 301 -40 621 29 886 191 l40 25 400 -400 c221 -223 417 -410 439 -422
53 -29 173 -30 225 -3 120 63 175 192 135 317 -16 50 -44 81 -426 464 l-408
410 25 40 c137 219 213 510 201 765 -18 345 -141 631 -379 876 -258 266 -560
400 -923 408 -82 3 -166 2 -185 0z m331 -535 c342 -84 586 -363 629 -719 19
-148 -11 -306 -85 -455 -108 -218 -297 -368 -541 -431 -87 -22 -114 -25 -219
-21 -135 5 -215 24 -323 73 -172 78 -311 214 -395 386 -231 470 29 1032 537
1164 122 31 278 33 397 3z"/>
</g>
</svg>
