<?xml version="1.0" standalone="no"?>
<!DOCTYPE svg PUBLIC "-//W3C//DTD SVG 20010904//EN"
 "http://www.w3.org/TR/2001/REC-SVG-20010904/DTD/svg10.dtd">
<svg version="1.0" xmlns="http://www.w3.org/2000/svg"
 width="568.000000pt" height="726.000000pt" viewBox="0 0 568.000000 726.000000"
 preserveAspectRatio="xMidYMid meet">

<g transform="translate(0.000000,726.000000) scale(0.100000,-0.100000)"
fill="#000000" stroke="none">
<path d="M3020 7014 c-330 -19 -641 -79 -783 -151 -66 -33 -124 -94 -133 -138
-16 -86 66 -192 236 -304 l95 -63 60 7 c191 20 251 24 350 25 97 0 219 -8 380
-25 49 -5 47 -4 -75 58 -210 106 -290 169 -290 229 0 63 132 90 435 91 230 0
364 -11 615 -49 248 -38 467 -91 578 -140 28 -12 52 -20 52 -17 0 12 -72 101
-117 144 -174 166 -410 269 -716 315 -99 15 -541 26 -687 18z"/>
<path d="M2490 6195 c-628 -68 -1142 -242 -1732 -588 -76 -45 -136 -83 -134
-85 2 -2 35 12 73 31 129 65 338 149 543 217 389 130 701 198 1155 252 170 20
760 17 953 -5 537 -61 1064 -218 1555 -463 59 -30 107 -52 107 -49 0 2 -60 44
-133 92 -487 323 -1095 539 -1667 593 -193 19 -568 21 -720 5z"/>
<path d="M2535 5839 c-399 -30 -816 -127 -1230 -285 -94 -36 -130 -59 -44 -28
75 26 427 112 569 138 161 29 376 60 555 78 195 19 768 16 968 -5 338 -37 686
-109 972 -201 76 -25 134 -41 129 -37 -15 14 -243 108 -351 145 -138 47 -434
121 -608 151 -287 49 -662 66 -960 44z"/>
<path d="M2570 5565 c-8 -2 -78 -9 -155 -15 -132 -10 -249 -21 -340 -34 -22
-2 -65 -8 -95 -11 -30 -3 -80 -10 -110 -15 -30 -5 -86 -14 -125 -20 -147 -24
-497 -93 -655 -131 -298 -70 -556 -141 -571 -156 -4 -5 -15 -127 -25 -273 -15
-232 -15 -295 -5 -505 13 -251 23 -376 40 -510 15 -113 25 -172 60 -365 78
-425 242 -911 439 -1305 151 -303 368 -631 601 -910 141 -169 494 -510 642
-620 15 -11 69 -52 120 -90 204 -154 445 -309 466 -301 57 22 463 313 593 425
137 118 160 139 320 300 238 239 396 432 576 706 338 515 557 1040 704 1693
22 95 29 130 40 192 6 36 16 85 20 110 9 43 18 115 41 310 33 290 45 653 30
885 -17 267 -16 263 -54 274 -18 5 -77 23 -132 41 -128 40 -493 133 -655 166
-271 57 -547 103 -730 123 -52 6 -133 16 -180 22 -81 11 -829 22 -860 14z"/>
</g>
</svg>
