<?xml version="1.0" standalone="no"?>
<!DOCTYPE svg PUBLIC "-//W3C//DTD SVG 20010904//EN"
 "http://www.w3.org/TR/2001/REC-SVG-20010904/DTD/svg10.dtd">
<svg version="1.0" xmlns="http://www.w3.org/2000/svg"
 width="718.000000pt" height="533.000000pt" viewBox="0 0 718.000000 533.000000"
 preserveAspectRatio="xMidYMid meet">

<g transform="translate(0.000000,533.000000) scale(0.100000,-0.100000)"
fill="#000000" stroke="none">
<path d="M3225 5219 c-400 -30 -826 -116 -1207 -243 -188 -62 -409 -147 -454
-175 -64 -39 -64 -41 -64 -540 l0 -451 2050 0 2050 0 0 450 c0 432 -1 452 -20
490 -24 47 -49 61 -239 135 -422 164 -854 269 -1321 321 -164 18 -630 26 -795
13z"/>
<path d="M1120 3070 l0 -470 2440 0 2440 0 0 470 0 470 -2440 0 -2440 0 0
-470z"/>
<path d="M233 3148 c111 -101 253 -228 314 -283 68 -60 109 -103 104 -110 -44
-57 -342 -487 -339 -490 9 -9 950 -17 945 -8 -4 6 -84 38 -180 72 l-173 62 4
470 5 469 -442 0 -442 0 204 -182z"/>
<path d="M6220 2865 c0 -442 -1 -455 -20 -465 -11 -6 -81 -33 -156 -60 -75
-28 -143 -54 -152 -60 -11 -6 150 -9 466 -10 265 0 482 3 482 8 0 6 -70 96
-286 368 l-72 90 247 276 c135 151 252 283 260 292 12 15 -17 16 -378 16
l-391 0 0 -455z"/>
<path d="M1574 2313 c3 -10 15 -56 26 -103 187 -745 703 -1433 1382 -1843 178
-108 508 -257 567 -257 64 0 372 139 574 260 450 269 845 682 1104 1155 115
209 219 471 273 685 11 47 23 93 26 103 5 16 -94 17 -1976 17 -1882 0 -1981
-1 -1976 -17z"/>
</g>
</svg>
