<svg height="512" viewBox="0 0 32 32" width="512" xmlns="http://www.w3.org/2000/svg"><g id="medals_4" data-name="medals 4"><path d="m22 11.32 4-7.87a1 1 0 0 0 0-1 1 1 0 0 0 -.86-.45h-5.28a1 1 0 0 0 -.89.55l-2.97 5.84-3-5.84a1 1 0 0 0 -.86-.55h-5.28a1 1 0 0 0 -.86.48 1 1 0 0 0 0 1l4 7.87a1 1 0 0 0 .89.54h2.26a4.42 4.42 0 0 0 -.22 1.37 5.29 5.29 0 0 0 0 .56 8.45 8.45 0 1 0 6.16 0 5.44 5.44 0 0 0 .05-.58 4.68 4.68 0 0 0 -.14-1.38h2.19a1 1 0 0 0 .81-.54zm-.92 9-2.55 2.49.6 3.52-3.13-1.68-3.16 1.66.6-3.52-2.55-2.49 3.53-.51 1.58-3.21 1.58 3.21zm-3.95-7.07s0 0 0 .07a8.64 8.64 0 0 0 -1.13-.11 7.77 7.77 0 0 0 -1.09.08.13.13 0 0 1 0-.06 2.21 2.21 0 0 1 .43-1.37h1.4a2.21 2.21 0 0 1 .42 1.37z"/></g></svg>