<svg xmlns="http://www.w3.org/2000/svg" version="1.0" preserveAspectRatio="xMidYMid meet" viewBox="72 53.3 500.3 479.85">

<g transform="translate(0.000000,575.000000) scale(0.100000,-0.100000)" fill="#000000" stroke="none">
<path d="M3045 5201 c-277 -73 -486 -266 -564 -524 -125 -412 92 -825 509 -967 100 -34 287 -39 403 -11 149 35 276 108 385 220 295 302 278 803 -37 1093 -90 83 -159 123 -284 166 -90 31 -116 35 -222 38 -93 3 -136 0 -190 -15z"/>
<path d="M1661 4524 c-135 -36 -258 -139 -321 -268 -55 -112 -69 -203 -47 -311 24 -114 68 -197 146 -275 201 -199 512 -199 711 0 99 99 150 223 150 366 0 284 -229 505 -520 503 -36 0 -89 -7 -119 -15z"/>
<path d="M4513 4525 c-117 -32 -235 -119 -303 -225 -127 -198 -95 -456 79 -630 101 -100 216 -149 351 -150 277 0 510 233 510 509 0 142 -49 260 -146 357 -132 130 -322 184 -491 139z"/>
<path d="M2555 3584 c-465 -137 -766 -361 -874 -649 -27 -72 -41 -226 -40 -465 1 -231 11 -334 36 -368 23 -29 25 -30 128 -8 39 8 109 18 156 21 l86 7 17 59 c9 32 16 67 16 77 0 9 -29 54 -64 99 -107 135 -116 169 -67 244 17 24 115 128 218 230 207 204 225 216 288 182 19 -10 71 -46 115 -80 45 -35 85 -63 90 -63 5 0 45 23 88 50 86 55 85 52 98 170 8 75 20 104 63 144 l30 29 288 -6 c170 -4 301 -11 320 -17 56 -20 62 -38 99 -297 4 -27 15 -38 75 -72 39 -23 75 -41 81 -41 6 0 47 29 92 64 152 119 191 130 262 77 46 -34 384 -374 408 -411 19 -29 20 -67 3 -96 -6 -12 -39 -57 -72 -100 -33 -43 -64 -84 -68 -92 -5 -8 0 -41 12 -81 l21 -68 92 -13 c51 -7 109 -18 130 -26 47 -16 59 -12 84 29 18 30 19 53 19 387 0 346 -1 357 -23 420 -68 190 -221 355 -454 487 -147 84 -470 203 -550 203 -17 0 -71 -18 -121 -41 -152 -68 -217 -81 -412 -82 -209 0 -281 14 -423 83 -57 27 -109 50 -115 50 -7 -1 -66 -17 -132 -36z"/>
<path d="M1321 3394 c-341 -101 -556 -282 -591 -499 -5 -33 -10 -151 -10 -262 l0 -201 29 -24 c16 -14 53 -34 82 -46 114 -45 426 -120 541 -129 l68 -6 0 234 c1 304 11 414 49 529 39 114 65 166 134 261 l54 76 -60 17 c-33 10 -92 30 -130 47 -38 16 -72 29 -76 28 -3 0 -44 -11 -90 -25z"/>
<path d="M4970 3400 c-19 -10 -71 -31 -115 -46 -44 -15 -83 -29 -87 -31 -4 -2 10 -27 32 -54 89 -113 160 -277 179 -413 6 -43 11 -201 11 -352 l0 -274 44 0 c60 0 182 24 361 70 197 51 254 73 295 115 l33 34 -9 244 -9 243 -32 65 c-82 165 -270 304 -518 382 -120 38 -144 40 -185 17z"/>
<path d="M3038 2940 c-23 -14 -37 -60 -51 -174 l-12 -97 -110 -45 c-60 -25 -117 -47 -126 -50 -9 -3 -50 21 -102 60 -98 74 -126 85 -165 65 -35 -18 -233 -216 -251 -251 -20 -39 -9 -67 65 -165 39 -52 63 -93 60 -102 -3 -9 -25 -65 -50 -126 l-45 -110 -103 -12 c-56 -7 -115 -17 -129 -24 -45 -18 -51 -49 -47 -244 4 -214 -3 -204 154 -228 59 -10 113 -22 120 -28 22 -18 107 -232 98 -245 -5 -7 -37 -52 -71 -100 -35 -48 -63 -97 -63 -110 0 -28 72 -116 170 -207 102 -94 117 -101 166 -77 21 11 70 45 108 75 38 30 72 55 76 55 4 0 41 -15 81 -34 41 -18 95 -41 120 -50 l46 -17 7 -72 c11 -119 25 -175 49 -192 32 -22 373 -22 404 0 27 19 39 63 49 170 7 88 13 100 50 109 13 4 67 25 119 47 l94 40 62 -49 c34 -28 84 -62 111 -77 l49 -27 38 26 c44 31 220 208 245 248 16 25 16 28 -3 65 -11 22 -45 73 -76 113 -30 41 -53 79 -51 85 3 5 24 57 48 115 24 58 47 110 51 116 3 6 44 14 89 18 109 9 154 22 173 49 22 31 22 372 0 404 -17 24 -73 38 -192 49 l-72 6 -49 124 -50 124 24 35 c13 20 41 59 63 88 61 82 64 92 45 129 -25 48 -237 256 -270 264 -33 8 -65 -8 -164 -83 l-73 -56 -76 33 c-42 18 -98 39 -124 48 -53 18 -50 11 -67 151 -12 107 -21 128 -56 141 -33 13 -364 12 -386 0z m357 -645 c112 -29 183 -71 280 -169 98 -99 143 -171 169 -271 39 -155 26 -307 -39 -443 -51 -107 -190 -246 -296 -296 -136 -65 -313 -80 -452 -40 -127 38 -279 156 -357 280 -66 104 -90 192 -90 326 0 130 13 187 67 290 77 148 239 281 393 324 65 18 253 17 325 -1z"/>
<path d="M3056 2001 c-100 -101 -175 -184 -171 -190 4 -7 45 -11 105 -11 l100 0 2 -292 3 -293 147 -3 148 -3 2 293 3 293 103 3 c89 2 102 5 102 20 0 18 -338 362 -355 362 -6 0 -91 -81 -189 -179z"/>
</g>
</svg>