<?xml version="1.0" standalone="no"?>
<!DOCTYPE svg PUBLIC "-//W3C//DTD SVG 20010904//EN"
 "http://www.w3.org/TR/2001/REC-SVG-20010904/DTD/svg10.dtd">
<svg version="1.0" xmlns="http://www.w3.org/2000/svg"
 width="478.000000pt" height="435.000000pt" viewBox="0 0 478.000000 435.000000"
 preserveAspectRatio="xMidYMid meet">

<g transform="translate(0.000000,435.000000) scale(0.100000,-0.100000)"
fill="#000000" stroke="none">
<path d="M2404 4020 c-357 -55 -593 -394 -519 -745 37 -178 160 -336 327 -421
256 -130 571 -62 759 163 227 273 164 697 -133 899 -124 85 -296 126 -434 104z"/>
<path d="M1222 3462 c-202 -72 -319 -282 -268 -481 43 -170 163 -281 336 -313
110 -21 246 21 334 102 217 201 165 548 -102 673 -87 41 -216 49 -300 19z"/>
<path d="M3515 3466 c-189 -60 -308 -234 -292 -427 19 -232 247 -412 467 -371
311 57 450 400 266 651 -44 59 -138 125 -209 146 -61 18 -177 19 -232 1z"/>
<path d="M1980 2721 c-411 -116 -667 -315 -735 -571 -11 -41 -15 -120 -15
-316 0 -256 0 -262 23 -295 12 -19 27 -33 31 -32 5 1 21 40 36 85 60 186 158
346 300 488 190 190 418 306 680 345 384 58 763 -68 1040 -345 145 -145 241
-301 302 -492 17 -54 34 -98 38 -98 9 0 45 41 59 67 15 29 15 503 0 575 -49
238 -280 438 -653 562 -156 52 -171 54 -242 18 -121 -61 -194 -77 -354 -77
-163 0 -242 18 -355 79 l-61 33 -94 -26z"/>
<path d="M970 2563 c-164 -47 -319 -136 -388 -222 -18 -23 -45 -67 -60 -99
-26 -55 -27 -65 -30 -250 l-4 -192 29 -28 c20 -21 58 -37 141 -61 129 -38 331
-81 380 -81 l32 0 0 238 c0 205 3 250 20 316 27 105 65 189 122 263 l47 63
-27 6 c-43 9 -115 35 -148 54 -30 17 -33 17 -114 -7z"/>
<path d="M3895 2569 c-16 -10 -62 -28 -101 -41 l-71 -22 40 -50 c22 -28 57
-87 78 -131 60 -129 69 -190 69 -459 l0 -236 33 0 c48 0 250 43 379 81 83 24
121 40 141 61 l29 28 -4 193 c-3 174 -5 197 -26 242 -70 153 -231 268 -467
333 -68 18 -71 18 -100 1z"/>
<path d="M2314 2164 c-232 -39 -467 -177 -616 -363 -393 -492 -260 -1208 283
-1523 487 -282 1108 -115 1391 373 356 614 -17 1400 -717 1514 -109 18 -232
18 -341 -1z m261 -277 c44 -44 54 -94 28 -144 -49 -95 -182 -94 -227 2 -24 50
-14 99 29 142 29 29 39 33 85 33 46 0 56 -4 85 -33z m-464 -174 c66 -39 77
-140 21 -195 -55 -56 -156 -45 -195 21 -34 58 -14 146 41 175 37 20 98 20 133
-1z m889 2 c84 -43 78 -180 -8 -221 -108 -51 -219 60 -168 167 30 64 110 88
176 54z m-1070 -455 c17 -12 34 -37 41 -61 41 -135 -125 -226 -216 -118 -19
23 -25 42 -25 78 0 107 112 164 200 101z m1298 -6 c27 -31 30 -93 5 -122 -10
-11 -124 -85 -254 -166 l-237 -146 -4 -64 c-5 -86 -44 -149 -117 -193 -92 -55
-170 -55 -262 0 -77 46 -113 108 -117 203 -5 90 18 144 83 202 72 64 178 80
264 42 24 -11 48 -20 53 -20 6 0 114 65 242 143 127 79 238 147 246 150 27 11
75 -3 98 -29z"/>
</g>
</svg>
