<svg xmlns="http://www.w3.org/2000/svg" version="1.0" preserveAspectRatio="xMidYMid meet" viewBox="9 41.24 755 538.76">

<g transform="translate(0.000000,624.000000) scale(0.100000,-0.100000)" fill="#000000" stroke="none">
<path d="M3118 5816 c-128 -35 -234 -172 -258 -333 -13 -90 -13 -3413 0 -3504 17 -118 94 -243 184 -299 81 -50 82 -50 831 -50 770 0 773 0 860 60 78 53 132 135 160 240 13 47 15 301 15 1797 0 1252 -3 1757 -11 1795 -24 112 -111 230 -206 279 l-48 24 -740 2 c-576 2 -750 -1 -787 -11z"/>
<path d="M785 4684 c-121 -28 -239 -159 -275 -306 -7 -29 -10 -427 -8 -1238 l3 -1195 24 -55 c36 -83 96 -157 159 -198 l57 -37 769 -3 768 -2 52 23 c88 41 169 141 203 252 17 57 18 125 18 1240 0 1115 -1 1183 -18 1240 -36 118 -114 215 -207 259 -44 21 -55 21 -785 23 -407 0 -749 -1 -760 -3z"/>
<path d="M5395 3759 c-103 -52 -168 -154 -185 -289 -13 -108 -13 -1394 0 -1510 15 -131 58 -206 166 -290 36 -27 113 -30 859 -30 746 0 823 3 859 30 66 51 100 91 128 148 l33 67 0 830 0 830 -33 60 c-45 82 -84 122 -150 156 l-57 29 -780 0 -780 0 -60 -31z"/>
<path d="M159 1326 c-66 -45 -69 -64 -69 -434 0 -297 2 -331 19 -368 10 -22 31 -50 46 -62 l28 -22 3683 0 3682 0 32 26 c60 51 60 50 60 429 0 373 0 374 -55 425 l-27 25 -3681 3 -3682 2 -36 -24z"/>
</g>
</svg>