<svg xmlns="http://www.w3.org/2000/svg" version="1.0" preserveAspectRatio="xMidYMid meet" viewBox="29 31.27 477 458.73">
<metadata>
Created by potrace 1.16, written by Peter Selinger 2001-2019
</metadata>
<g transform="translate(0.000000,535.000000) scale(0.100000,-0.100000)" fill="#000000" stroke="none">
<path d="M390 5033 c-26 -10 -61 -47 -81 -85 -18 -35 -19 -68 -19 -683 l0 -645 2385 0 2385 0 0 647 c0 628 -1 648 -20 687 -11 23 -33 50 -48 61 -27 20 -44 20 -2307 22 -1254 1 -2287 -1 -2295 -4z m1595 -547 c19 -8 45 -32 61 -55 50 -76 30 -200 -40 -242 -29 -18 -61 -19 -599 -19 l-569 0 -33 33 c-85 85 -64 238 40 283 46 20 1091 20 1140 0z m2518 0 c103 -42 127 -189 47 -279 l-28 -32 -574 -3 c-547 -2 -574 -1 -604 17 -70 43 -90 165 -41 241 48 71 29 69 630 70 432 0 544 -3 570 -14z"/>
<path d="M290 1937 l0 -1353 22 -44 c13 -24 36 -53 51 -64 28 -21 36 -21 1093 -24 l1064 -2 0 1420 0 1420 -1115 0 -1115 0 0 -1353z m1451 900 c19 -12 44 -42 57 -67 l22 -44 0 -781 c0 -739 -1 -782 -19 -821 -10 -23 -34 -52 -52 -65 -34 -24 -35 -24 -337 -27 l-304 -3 -43 25 c-88 52 -109 178 -43 261 44 56 84 65 291 65 l187 0 0 195 0 195 -187 0 c-161 0 -194 3 -229 19 -135 61 -133 259 3 317 24 10 83 14 223 14 l190 0 -2 198 -3 197 -200 5 c-164 4 -206 8 -232 22 -103 57 -105 227 -3 295 32 23 38 23 340 23 302 0 308 0 341 -23z"/>
<path d="M2840 1870 l0 -1420 1059 2 c1052 3 1060 3 1088 24 15 11 38 40 51 64 l22 44 0 1353 0 1353 -1110 0 -1110 0 0 -1420z m1490 955 c61 -58 60 -45 60 -503 1 -488 1 -485 -92 -533 -33 -17 -61 -19 -233 -19 l-195 0 0 -195 0 -195 178 0 c202 -1 242 -7 284 -47 43 -41 58 -75 58 -133 0 -58 -15 -92 -60 -135 l-31 -30 -318 -3 c-316 -3 -317 -3 -351 20 -18 13 -44 43 -57 67 -23 44 -23 44 -23 453 0 444 0 448 56 500 47 43 73 48 275 48 l189 0 -2 198 -3 197 -205 5 c-196 5 -206 6 -239 29 -39 28 -70 91 -71 141 0 49 38 120 80 148 34 23 35 23 351 20 l318 -3 31 -30z"/>
</g>
</svg>