<svg xmlns="http://www.w3.org/2000/svg" version="1.0" preserveAspectRatio="xMidYMid meet" viewBox="19.99 18 712.02 667.01">

<g transform="translate(0.000000,703.000000) scale(0.100000,-0.100000)" fill="#000000" stroke="none">
<path d="M335 6833 c-49 -25 -86 -65 -111 -118 l-24 -50 0 -937 0 -938 1675 0 1675 0 0 1030 0 1030 -1592 0 c-1432 -1 -1596 -2 -1623 -17z m2393 -788 c83 -35 136 -122 135 -225 -1 -101 -45 -180 -124 -220 -37 -19 -64 -20 -862 -20 l-824 0 -44 23 c-54 28 -103 98 -118 167 -22 102 31 220 119 266 l45 24 818 0 c715 0 822 -2 855 -15z"/>
<path d="M3970 5820 l0 -1030 1675 0 1675 0 0 938 c0 921 -1 938 -21 982 -25 55 -62 96 -111 121 -36 18 -82 19 -1628 19 l-1590 0 0 -1030z m2560 205 c135 -92 136 -315 2 -410 l-44 -30 -834 -3 c-813 -2 -835 -2 -873 17 -79 41 -123 120 -124 221 -1 101 51 188 133 224 31 13 140 15 865 13 l830 -2 45 -30z"/>
<path d="M200 2348 c0 -2199 -6 -2018 72 -2099 73 -75 -242 -69 3488 -69 3730 0 3415 -6 3488 69 78 81 72 -100 72 2099 l0 1962 -3560 0 -3560 0 0 -1962z m2294 1391 c52 -24 76 -49 108 -109 l23 -45 0 -1100 0 -1100 -21 -40 c-12 -22 -34 -53 -49 -68 -58 -57 -54 -57 -475 -57 l-388 0 -47 32 c-122 85 -138 272 -32 382 26 27 57 48 82 55 24 6 136 11 278 11 l237 0 0 275 0 275 -251 0 c-274 0 -287 2 -347 61 -49 48 -66 94 -66 179 0 80 11 111 60 170 54 64 87 70 360 70 l244 0 -2 273 -3 272 -260 5 c-237 5 -263 7 -290 25 -77 51 -109 113 -109 215 -1 63 3 82 26 120 31 54 52 74 104 100 37 18 62 19 407 20 350 0 369 -1 411 -21z m3337 7 c51 -21 86 -53 117 -104 l27 -47 3 -559 c2 -357 -1 -577 -7 -608 -14 -61 -43 -106 -95 -144 l-41 -29 -262 -3 -263 -3 0 -274 0 -275 238 0 c141 0 253 -5 277 -11 25 -7 56 -28 82 -55 106 -110 90 -297 -32 -382 l-47 -32 -389 0 c-293 0 -395 3 -412 12 -40 23 -88 72 -110 113 -22 40 -22 44 -22 625 l0 585 23 45 c33 62 60 89 110 111 39 17 71 19 288 19 l244 0 -2 273 -3 272 -261 5 c-207 4 -265 8 -280 19 -90 69 -118 120 -118 216 0 108 42 181 130 225 37 18 62 19 405 20 293 0 373 -3 400 -14z m-1964 -540 c51 -34 94 -113 101 -186 5 -60 -19 -135 -62 -186 -32 -39 -101 -74 -146 -74 -115 0 -221 134 -207 265 18 174 182 269 314 181z m-43 -1006 c75 -28 146 -139 146 -228 0 -100 -75 -207 -163 -231 -39 -11 -55 -11 -94 0 -88 24 -163 131 -163 231 0 86 59 183 135 222 34 18 101 21 139 6z"/>
</g>
</svg>