<svg xmlns="http://www.w3.org/2000/svg" version="1.0" preserveAspectRatio="xMidYMid meet" viewBox="17 25.23 526 458.77">

<g transform="translate(0.000000,520.000000) scale(0.100000,-0.100000)" fill="#000000" stroke="none">
<path d="M264 4936 c-17 -8 -44 -31 -60 -52 l-29 -37 -3 -659 -2 -658 2630 0 2630 0 0 643 0 643 -22 44 c-13 24 -36 53 -51 64 l-28 21 -2517 2 c-2105 2 -2522 0 -2548 -11z m1786 -548 c86 -44 114 -156 60 -243 -41 -67 -21 -65 -707 -65 -599 0 -619 1 -651 20 -48 29 -72 75 -72 138 0 79 41 142 106 162 16 4 297 9 624 9 l596 1 44 -22z m2797 -4 c51 -38 73 -81 73 -144 0 -47 -5 -64 -29 -97 -16 -22 -42 -45 -57 -52 -22 -8 -188 -11 -654 -9 -607 3 -626 4 -652 23 -97 73 -85 228 22 283 l45 22 612 -2 c603 -3 612 -3 640 -24z"/>
<path d="M170 1847 l0 -1354 23 -44 c13 -24 39 -53 58 -64 33 -20 52 -20 1207 -23 l1172 -2 0 1420 0 1420 -1230 0 -1230 0 0 -1353z m1606 914 c23 -10 54 -36 70 -57 l29 -37 3 -840 c2 -824 2 -841 -18 -882 -11 -22 -35 -52 -52 -66 l-33 -24 -335 0 c-335 0 -335 0 -368 23 -102 73 -95 248 13 309 38 21 51 23 248 23 l207 0 0 209 0 210 -213 3 c-209 3 -214 4 -250 28 -57 39 -80 89 -75 165 3 49 10 70 31 99 51 66 68 70 300 74 l207 4 0 204 0 204 -193 0 c-210 0 -246 6 -290 47 -43 41 -57 76 -57 138 0 60 14 97 52 132 53 49 73 52 388 52 267 1 299 -1 336 -18z"/>
<path d="M2950 1780 l0 -1420 1183 2 c1164 3 1183 3 1216 23 19 11 45 40 58 64 l23 44 0 1354 0 1353 -1240 0 -1240 0 0 -1420z m1556 971 c18 -11 45 -36 60 -57 l29 -37 0 -463 0 -462 -31 -39 c-55 -69 -73 -73 -301 -73 l-203 0 0 -210 0 -210 203 0 c228 0 246 -4 301 -73 24 -30 31 -50 34 -97 4 -50 0 -66 -22 -104 -14 -24 -41 -54 -60 -65 -32 -20 -46 -21 -356 -21 -310 0 -324 1 -356 21 -19 11 -45 40 -59 63 l-25 43 0 444 0 445 30 48 c50 78 78 86 313 86 l197 0 0 204 0 205 -207 3 c-198 3 -210 4 -246 26 -20 13 -49 44 -63 68 -51 86 -19 201 70 255 29 18 53 19 346 19 293 0 317 -1 346 -19z"/>
</g>
</svg>