<svg xmlns="http://www.w3.org/2000/svg" version="1.0" preserveAspectRatio="xMidYMid meet" viewBox="47 43.15 465 466.86">

<g transform="translate(0.000000,553.000000) scale(0.100000,-0.100000)" fill="#000000" stroke="none">
<path d="M1600 5083 c-19 -10 -45 -33 -57 -52 l-23 -34 0 -491 c0 -490 0 -492 -22 -536 -33 -62 -68 -85 -133 -85 -58 0 -91 18 -129 69 -20 26 -21 42 -24 347 l-3 320 -329 -3 -330 -3 -37 -38 -38 -37 -3 -2004 -2 -2003 23 -34 c49 -74 -27 -69 1120 -69 l1027 0 0 2095 0 2095 -409 0 -410 0 -3 189 c-3 173 -5 192 -24 217 -50 68 -129 91 -194 57z m88 -1708 c251 -59 405 -285 452 -665 17 -140 14 -444 -5 -573 -54 -364 -196 -569 -440 -638 -76 -21 -276 -19 -345 5 -185 62 -317 217 -379 445 -69 252 -72 686 -5 944 67 263 208 426 414 481 72 19 229 20 308 1z"/>
<path d="M1460 3151 c-115 -35 -192 -143 -232 -325 -26 -116 -37 -511 -19 -665 28 -234 102 -378 220 -428 20 -9 67 -16 106 -17 59 0 78 4 123 29 161 88 221 308 209 769 -8 277 -33 406 -103 517 -61 98 -198 152 -304 120z"/>
<path d="M3856 5078 c-69 -41 -76 -67 -76 -275 l0 -183 -415 0 -415 0 0 -2095 0 -2095 1028 0 c1146 0 1070 -5 1119 69 l23 34 -2 2003 -3 2004 -38 37 -37 38 -325 3 -325 3 0 -151 0 -150 -155 0 -155 0 0 331 c0 285 -2 336 -16 365 -36 76 -134 105 -208 62z m350 -1693 c118 -22 194 -63 278 -148 83 -82 119 -148 142 -257 39 -183 -26 -371 -193 -563 -82 -94 -205 -207 -413 -377 -85 -71 -180 -152 -210 -181 l-55 -54 443 -3 442 -2 0 -130 0 -130 -620 0 -620 0 0 38 c1 64 27 154 72 242 54 107 180 238 348 363 107 79 265 234 414 406 145 167 164 359 49 482 -64 69 -127 94 -238 94 -76 0 -98 -4 -145 -26 -104 -49 -154 -121 -172 -249 -14 -93 0 -88 -181 -68 l-108 11 7 46 c21 154 73 269 159 356 137 137 367 195 601 150z"/>
</g>
</svg>