<svg id="Layer_1" enable-background="new 0 0 512 512" height="512" viewBox="0 0 512 512" width="512" xmlns="http://www.w3.org/2000/svg"><g><path d="m497 0h-226v512h226c8.284 0 15-6.716 15-15v-482c0-8.284-6.716-15-15-15zm-161.733 447.733c0 8.284-6.716 15-15 15s-15-6.716-15-15v-32.133c0-8.284 6.716-15 15-15s15 6.716 15 15zm64.266 0c0 8.284-6.716 15-15 15s-15-6.716-15-15v-32.133c0-8.284 6.716-15 15-15s15 6.716 15 15zm64.267 0c0 8.284-6.716 15-15 15s-15-6.716-15-15v-32.133c0-8.284 6.716-15 15-15s15 6.716 15 15zm0-96.4c0 8.284-6.716 15-15 15h-96.4c-8.284 0-15-6.716-15-15v-192.8c0-8.284 6.716-15 15-15h96.4c8.284 0 15 6.716 15 15z"/><path d="m367.4 173.533h66.399v162.8h-66.399z"/><path d="m0 15v482c0 8.284 6.716 15 15 15h226v-512h-226c-8.284 0-15 6.716-15 15zm142.467 432.733c0 8.284-6.716 15-15 15s-15-6.716-15-15v-32.133c0-8.284 6.716-15 15-15s15 6.716 15 15zm34.266-32.133c0-8.284 6.716-15 15-15s15 6.716 15 15v32.134c0 8.284-6.716 15-15 15s-15-6.716-15-15zm-113.533-145.666c-8.284 0-15-6.716-15-15v-96.4c0-8.284 6.716-15 15-15h96.4c8.284 0 15 6.716 15 15s-6.716 15-15 15h-81.4v66.4h81.4c8.284 0 15 6.716 15 15v96.399c0 8.284-6.716 15-15 15h-96.4c-8.284 0-15-6.716-15-15s6.716-15 15-15h81.4v-66.399zm-15 145.666c0-8.284 6.716-15 15-15s15 6.716 15 15v32.134c0 8.284-6.716 15-15 15s-15-6.716-15-15z"/></g></svg>