<svg xmlns="http://www.w3.org/2000/svg" version="1.0" preserveAspectRatio="xMidYMid meet" viewBox="57 31.94 269.3 321.1">

<g transform="translate(0.000000,401.000000) scale(0.100000,-0.100000)" fill="#000000" stroke="none">
<path d="M1805 3673 c-40 -21 -103 -81 -122 -117 -18 -34 -37 -12 167 -191 63 -55 139 -122 170 -150 86 -76 261 -229 296 -259 l31 -26 40 29 c67 48 111 140 99 204 -6 32 -27 53 -158 164 -84 70 -170 144 -193 164 -22 20 -84 73 -138 117 -105 89 -131 98 -192 65z"/>
<path d="M902 3388 l3 -172 195 -154 c107 -84 239 -188 293 -229 53 -41 97 -78 97 -82 0 -4 -18 -33 -41 -64 l-40 -57 -58 0 c-43 0 -65 -5 -82 -19 -22 -18 -24 -26 -24 -114 0 -145 -25 -135 338 -140 203 -2 314 -7 340 -16 85 -28 127 -95 127 -205 l0 -45 -417 -3 -418 -3 -58 -27 c-82 -39 -134 -83 -179 -152 -21 -32 -38 -63 -38 -68 0 -4 439 -8 975 -8 536 0 975 4 975 8 0 19 -78 129 -111 156 -19 16 -63 43 -99 60 -62 29 -72 31 -212 34 l-148 4 -1 37 c-2 153 -49 270 -148 364 -77 73 -135 102 -262 131 -17 4 -38 24 -62 60 l-36 54 31 28 c17 16 38 46 48 67 l18 39 90 -86 c50 -47 99 -86 108 -86 17 0 154 138 153 155 0 6 -89 87 -197 182 -108 94 -260 226 -336 294 l-139 122 -58 -60 c-40 -42 -59 -69 -59 -86 0 -19 26 -50 110 -128 l110 -102 -54 -25 -54 -24 -73 59 c-41 33 -150 120 -244 194 -93 74 -211 167 -261 207 -51 39 -95 72 -98 72 -4 0 -5 -77 -4 -172z"/>
<path d="M850 1600 c-68 -25 -146 -78 -183 -125 -59 -74 -97 -183 -97 -275 l0 -40 1346 0 1347 0 -6 74 c-15 179 -114 308 -281 366 -54 19 -88 20 -1063 20 -978 -1 -1010 -1 -1063 -20z"/>
<path d="M577 1013 c-10 -10 -8 -133 3 -194 31 -164 156 -293 318 -328 68 -14 1955 -16 2030 -1 155 29 288 161 321 318 6 29 11 89 11 132 l0 80 -1338 0 c-736 0 -1342 -3 -1345 -7z"/>
</g>
</svg>